<svg width="17" height="15" viewBox="0 0 17 15" fill="none" xmlns="http://www.w3.org/2000/svg">
<path d="M10.7689 7.23317C10.7689 8.56102 9.57706 9.64403 8.11581 9.64403C6.65455 9.64403 5.46275 8.56102 5.46275 7.23317C5.46275 5.90531 6.65455 4.82231 8.11581 4.82231C9.57706 4.82231 10.7689 5.90531 10.7689 7.23317ZM12.199 7.23317C12.199 5.18017 10.3751 3.5227 8.11581 3.5227C5.85656 3.5227 4.03258 5.18017 4.03258 7.23317C4.03258 9.28616 5.85656 10.9436 8.11581 10.9436C10.3751 10.9436 12.199 9.28616 12.199 7.23317ZM13.3183 3.37203C13.3183 2.89174 12.8934 2.50562 12.3649 2.50562C11.8363 2.50562 11.4114 2.89174 11.4114 3.37203C11.4114 3.85231 11.8363 4.23843 12.3649 4.23843C12.8934 4.23843 13.3183 3.85231 13.3183 3.37203ZM8.11581 1.30019C9.27652 1.30019 11.7638 1.21544 12.8105 1.59213C13.1732 1.72398 13.4427 1.88407 13.7225 2.13834C14.0023 2.39261 14.1785 2.63747 14.3236 2.96708C14.7381 3.91824 14.6448 6.17842 14.6448 7.23317C14.6448 8.28792 14.7381 10.5481 14.3236 11.4993C14.1785 11.8289 14.0023 12.0737 13.7225 12.328C13.4427 12.5823 13.1732 12.7424 12.8105 12.8742C11.7638 13.2509 9.27652 13.1661 8.11581 13.1661C6.95509 13.1661 4.46785 13.2509 3.42113 12.8742C3.05841 12.7424 2.78896 12.5823 2.50914 12.328C2.22933 12.0737 2.05315 11.8289 1.90806 11.4993C1.49352 10.5481 1.58679 8.28792 1.58679 7.23317C1.58679 6.17842 1.49352 3.91824 1.90806 2.96708C2.05315 2.63747 2.22933 2.39261 2.50914 2.13834C2.78896 1.88407 3.05841 1.72398 3.42113 1.59213C4.46785 1.21544 6.95509 1.30019 8.11581 1.30019ZM16.075 7.23317C16.075 6.23492 16.0854 5.24609 16.0232 4.24784C15.961 3.0895 15.6708 2.063 14.7381 1.21544C13.8054 0.367868 12.6758 0.10418 11.401 0.0476762C10.3025 -0.00882859 9.21434 0.000588539 8.11581 0.000588539C7.01727 0.000588539 5.9291 -0.00882859 4.83057 0.0476762C3.55586 0.10418 2.42623 0.367868 1.49352 1.21544C0.5608 2.063 0.270622 3.0895 0.208441 4.24784C0.14626 5.24609 0.156623 6.23492 0.156623 7.23317C0.156623 8.23141 0.14626 9.22024 0.208441 10.2185C0.270622 11.3768 0.5608 12.4033 1.49352 13.2509C2.42623 14.0985 3.55586 14.3622 4.83057 14.4187C5.9291 14.4752 7.01727 14.4657 8.11581 14.4657C9.21434 14.4657 10.3025 14.4752 11.401 14.4187C12.6758 14.3622 13.8054 14.0985 14.7381 13.2509C15.6708 12.4033 15.961 11.3768 16.0232 10.2185C16.0854 9.22024 16.075 8.23141 16.075 7.23317Z" fill="white"/>
</svg>
