<svg width="14" height="16" viewBox="0 0 14 16" fill="none" xmlns="http://www.w3.org/2000/svg">
<path d="M7.44606 0.601473L9.38889 0.567383C9.56756 1.19792 9.87077 1.78802 10.2813 2.30428C11.3996 3.70326 12.9604 4.07825 13.4734 4.17924L13.4577 6.75647C12.9449 6.74996 12.4347 6.683 11.9383 6.55704C11.172 6.36161 10.4492 6.02934 9.80617 5.57694C9.80617 5.84072 9.81052 6.23403 9.81052 6.7113C9.81052 7.3475 9.80791 7.70886 9.80617 8.0928C9.79529 10.4638 9.85534 10.9219 9.64257 11.8593C9.57425 12.1615 9.53988 12.3123 9.46155 12.5262C9.05254 13.6427 8.16141 14.5363 7.25287 15.0114C5.42927 15.9651 2.84943 15.5914 1.61368 14.1523C0.696438 13.0819 0.498457 11.3996 0.478876 10.9721C0.476265 10.918 0.47496 10.8643 0.47496 10.8643C0.460556 10.282 0.545258 9.70131 0.725591 9.14619C0.909213 8.57262 1.5136 7.3735 2.87162 6.64567C3.71835 6.19789 4.68546 6.01665 5.64117 6.12665L5.60985 8.73455C5.55589 8.72092 4.25531 8.41922 3.40116 9.28852C2.58835 10.1135 2.68843 11.4805 3.32284 12.1726C3.63004 12.5079 4.01904 12.6332 4.28011 12.7214C4.39933 12.7615 5.36313 13.0713 6.17551 12.6907C7.32728 12.1517 7.46956 10.8852 7.47565 10.8192L7.44606 0.601473Z" fill="white"/>
</svg>
