<svg width="16" height="14" viewBox="0 0 16 14" fill="none" xmlns="http://www.w3.org/2000/svg">
<path fill-rule="evenodd" clip-rule="evenodd" d="M7.71015 3.62166L7.74317 4.21058L7.1948 4.13825C5.19837 3.86201 3.4537 2.92453 1.97263 1.35028L1.24834 0.569406L1.06211 1.14582C0.666956 2.43186 0.919217 3.79023 1.74203 4.70379C2.18052 5.20842 2.08251 5.2802 1.32521 4.98003C1.06211 4.88432 0.831519 4.812 0.809336 4.84789C0.732987 4.93218 0.996082 6.02572 1.20449 6.45857C1.48977 7.05945 2.07116 7.64837 2.70774 7.99639L3.24528 8.27318L2.6087 8.28514C1.99481 8.28514 1.97263 8.2971 2.03814 8.54942C2.2579 9.33084 3.12457 10.1596 4.08976 10.5201L4.7702 10.7724L4.17746 11.1574C3.28584 11.7146 2.27326 12.0208 1.23699 12.0465C0.743821 12.0584 0.33783 12.1063 0.33783 12.1427C0.33783 12.2624 1.67652 12.9356 2.45548 13.2004C4.79238 13.9813 7.56777 13.6447 9.65189 12.3108C11.1335 11.3613 12.6145 9.47494 13.3053 7.64837C13.6788 6.675 14.0518 4.89629 14.0518 4.04309C14.0518 3.49006 14.0843 3.41774 14.6987 2.75704C15.0608 2.37259 15.4008 1.95225 15.4668 1.83153C15.5767 1.60314 15.5653 1.60314 15.0061 1.8076C14.0734 2.16813 13.9419 2.12027 14.4026 1.57921C14.743 1.19476 15.1485 0.497627 15.1485 0.293164C15.1485 0.257275 14.9839 0.317635 14.7977 0.425847C14.6001 0.54548 14.1611 0.726016 13.832 0.833685L13.2398 1.03869L12.7022 0.641729C12.4061 0.425304 11.9888 0.184952 11.7695 0.112629C11.2098 -0.0559442 10.3545 -0.0314739 9.84947 0.160481C8.47829 0.701545 7.61162 2.09526 7.71015 3.62166Z" fill="white"/>
</svg>
