<svg width="471" height="97" viewBox="0 0 471 97" fill="none" xmlns="http://www.w3.org/2000/svg">
<path d="M38.56 63.468C38.56 64.116 38.548 64.608 38.524 64.944L38.488 66.636L38.524 69.84C38.524 74.424 37.972 77.484 36.868 79.02C36.268 79.86 35.284 80.52 33.916 81C32.572 81.504 31.168 81.756 29.704 81.756C27.688 81.756 26.2 81.372 25.24 80.604C24.28 79.812 23.68 78.876 23.44 77.796C23.2 76.716 23.068 75.312 23.044 73.584C23.044 72.936 23.032 72.468 23.008 72.18C22.888 70.164 22.828 67.752 22.828 64.944C22.828 63.528 22.924 62.268 23.116 61.164C23.308 60.06 23.692 59.076 24.268 58.212C24.844 57.348 25.672 56.7 26.752 56.268C27.856 55.812 29.068 55.584 30.388 55.584C31.54 55.584 32.68 55.764 33.808 56.124C34.96 56.46 35.884 56.928 36.58 57.528C37.012 57.912 37.456 58.608 37.912 59.616C38.152 60.192 38.32 60.792 38.416 61.416C38.512 62.016 38.56 62.7 38.56 63.468ZM30.712 55.944C29.392 55.944 28.168 56.16 27.04 56.592C25.912 57 25.084 57.6 24.556 58.392C24.028 59.184 23.668 60.108 23.476 61.164C23.284 62.22 23.188 63.408 23.188 64.728C23.188 67.608 23.248 70.08 23.368 72.144C23.392 72.48 23.404 72.996 23.404 73.692C23.404 74.796 23.44 75.72 23.512 76.464C23.608 77.184 23.812 77.868 24.124 78.516C24.532 79.524 25.192 80.256 26.104 80.712C27.04 81.144 28.228 81.36 29.668 81.36C31.108 81.36 32.476 81.132 33.772 80.676C35.068 80.22 36.004 79.596 36.58 78.804C37.204 77.94 37.624 76.752 37.84 75.24C38.056 73.728 38.164 72.012 38.164 70.092L38.128 66.996L38.164 65.304C38.212 64.536 38.236 63.936 38.236 63.504C38.236 62.016 38.02 60.768 37.588 59.76C37.012 58.464 36.16 57.504 35.032 56.88C33.904 56.256 32.464 55.944 30.712 55.944ZM34.024 68.004L33.988 70.812C33.94 72.108 33.916 73.068 33.916 73.692C33.916 74.604 33.556 75.324 32.836 75.852C32.116 76.38 31.336 76.644 30.496 76.644C29.464 76.644 28.684 76.344 28.156 75.744C27.652 75.144 27.316 74.424 27.148 73.584C26.98 72.744 26.86 71.652 26.788 70.308L26.752 69.552C26.704 68.688 26.68 68.004 26.68 67.5C26.68 65.7 27.004 64.104 27.652 62.712C28.3 61.32 29.368 60.624 30.856 60.624C31.6 60.624 32.176 60.816 32.584 61.2C32.992 61.56 33.268 62.016 33.412 62.568C33.556 63.096 33.688 63.804 33.808 64.692C33.832 65.028 33.892 65.448 33.988 65.952V66.024L34.024 68.004ZM32.944 62.208C32.392 61.368 31.66 60.948 30.748 60.948C29.476 60.948 28.54 61.596 27.94 62.892C27.34 64.164 27.04 65.652 27.04 67.356C27.04 67.86 27.064 68.424 27.112 69.048C27.16 69.648 27.196 70.068 27.22 70.308L27.328 71.352C27.352 71.52 27.364 71.76 27.364 72.072C27.412 72.792 27.472 73.392 27.544 73.872C27.64 74.328 27.796 74.772 28.012 75.204C28.348 75.54 28.756 75.804 29.236 75.996C29.716 76.188 30.196 76.284 30.676 76.284C31.42 76.284 32.08 76.056 32.656 75.6C33.256 75.144 33.556 74.496 33.556 73.656C33.556 72.984 33.58 72.024 33.628 70.776L33.664 68.004L33.628 66.06C33.556 65.58 33.52 65.124 33.52 64.692C33.496 64.116 33.448 63.648 33.376 63.288C33.304 62.928 33.16 62.568 32.944 62.208ZM51.9303 81.072L50.7423 78.516C49.8543 76.74 49.1583 75.216 48.6543 73.944C48.3423 73.224 48.0543 72.444 47.7903 71.604L46.9623 69.444C46.8183 71.028 46.7463 73.08 46.7463 75.6V78.012C46.7463 79.356 46.7823 80.352 46.8543 81C46.6623 81.192 46.3623 81.312 45.9543 81.36C45.5703 81.432 45.1143 81.468 44.5863 81.468C44.0583 81.468 43.4343 81.408 42.7143 81.288C42.0183 81.192 41.5983 81.072 41.4543 80.928C41.4543 79.344 41.4303 76.944 41.3823 73.728C41.3343 70.56 41.3103 68.172 41.3103 66.564C41.3103 62.364 41.4303 58.764 41.6703 55.764C42.1023 55.548 42.6663 55.44 43.3623 55.44C43.5303 55.44 43.6863 55.464 43.8303 55.512C44.6223 55.512 45.2583 55.536 45.7383 55.584C46.2183 55.608 46.5183 55.74 46.6383 55.98C46.6383 56.172 46.7343 56.472 46.9263 56.88C47.1183 57.264 47.3343 57.66 47.5743 58.068C47.8143 58.452 48.0303 58.836 48.2223 59.22C48.4143 59.604 48.5103 59.88 48.5103 60.048C48.5823 60.288 48.7863 60.708 49.1223 61.308L49.5543 62.1C49.6263 62.268 49.9863 63 50.6343 64.296L51.3183 65.664C51.4143 64.896 51.4623 64.032 51.4623 63.072C51.4623 62.448 51.4383 61.536 51.3903 60.336C51.3183 59.424 51.2823 58.512 51.2823 57.6C51.2823 56.928 51.3183 56.268 51.3903 55.62C51.7263 55.452 52.1103 55.356 52.5423 55.332C52.9983 55.284 53.5383 55.26 54.1623 55.26C55.7223 55.26 56.5743 55.392 56.7183 55.656L56.7543 81C56.6343 81.12 56.5743 81.18 56.5743 81.18H56.5383C56.2743 81.3 55.8903 81.36 55.3863 81.36C55.0023 81.36 54.4503 81.336 53.7303 81.288C53.2023 81.216 52.6503 81.18 52.0743 81.18L51.9303 81.072ZM56.3583 55.8C55.5183 55.68 54.7743 55.62 54.1263 55.62C53.4303 55.62 52.6383 55.68 51.7503 55.8C51.6783 56.592 51.6423 57.372 51.6423 58.14C51.6423 58.836 51.6663 59.88 51.7143 61.272C51.7863 62.304 51.8223 63.372 51.8223 64.476C51.8223 64.908 51.7863 65.268 51.7143 65.556C51.6663 65.844 51.5583 66.072 51.3903 66.24H51.3543C51.0423 66.24 50.4303 65.136 49.5183 62.928L49.2303 62.244C49.1583 62.1 48.9663 61.788 48.6543 61.308C48.3423 60.828 48.1743 60.432 48.1503 60.12L47.4663 58.752C46.7463 57.408 46.3503 56.532 46.2783 56.124C46.0623 56.076 45.5943 56.028 44.8743 55.98C44.7543 55.98 44.5503 55.968 44.2623 55.944C43.9743 55.92 43.7823 55.884 43.6863 55.836H43.0743C43.0023 55.884 42.8703 55.908 42.6783 55.908H42.3903C42.2223 55.908 42.1023 55.92 42.0303 55.944C41.7903 58.872 41.6703 62.412 41.6703 66.564C41.6703 68.148 41.6943 70.524 41.7423 73.692C41.7903 76.86 41.8143 79.224 41.8143 80.784C42.2223 80.784 42.5943 80.808 42.9303 80.856C43.2663 80.88 43.5063 80.892 43.6503 80.892C44.1543 80.964 44.7183 81 45.3423 81C45.4623 80.952 45.6543 80.928 45.9183 80.928C46.1583 80.928 46.3383 80.916 46.4583 80.892C46.3863 79.956 46.3503 79.008 46.3503 78.048C46.3503 76.872 46.3863 75.696 46.4583 74.52C46.5063 73.368 46.5303 72.492 46.5303 71.892L46.4943 70.848C46.4943 69.408 46.6263 68.688 46.8903 68.688H46.9263L47.1063 68.796C47.3223 69.324 47.6223 70.14 48.0063 71.244C48.1023 71.508 48.2463 71.904 48.4383 72.432C48.6303 72.96 48.8103 73.416 48.9783 73.8C49.4103 74.904 50.0583 76.332 50.9223 78.084L52.1823 80.82C52.9263 80.82 53.5263 80.856 53.9823 80.928C54.5583 80.976 55.0263 81 55.3863 81C55.5063 81 55.6623 80.976 55.8543 80.928C56.0463 80.88 56.2263 80.844 56.3943 80.82L56.3583 55.8ZM73.7711 55.44C77.1311 55.44 79.8071 55.536 81.7991 55.728V59.4C81.7991 60.48 81.6791 61.26 81.4391 61.74C81.0311 61.644 80.5511 61.596 79.9991 61.596C79.6391 61.596 79.1471 61.62 78.5231 61.668C77.8511 61.716 77.3711 61.74 77.0831 61.74L77.0471 63.9C77.0231 64.38 77.0111 65.088 77.0111 66.024C77.0111 67.656 77.0591 70.128 77.1551 73.44C77.1791 74.256 77.2031 75.276 77.2271 76.5C77.2511 77.724 77.2631 79.152 77.2631 80.784C77.1671 81.024 76.6511 81.144 75.7151 81.144L74.3111 81.108C73.6391 81.06 73.1591 81.036 72.8711 81.036C72.2231 81.036 71.6711 81.096 71.2151 81.216C71.0231 81.096 70.9271 80.844 70.9271 80.46C70.9271 80.004 70.9511 79.32 70.9991 78.408L71.0351 76.356V71.604C71.0351 67.404 70.9991 64.236 70.9271 62.1C70.6391 61.956 70.2911 61.848 69.8831 61.776C69.4751 61.68 69.0911 61.632 68.7311 61.632L66.9671 61.668C66.6311 61.668 66.4031 61.548 66.2831 61.308C66.1871 61.044 66.1391 60.672 66.1391 60.192L66.1751 59.256V57.492C66.1751 57.372 66.1751 57.132 66.1751 56.772C66.1751 56.388 66.1991 56.028 66.2471 55.692H66.2111L66.3911 55.476L73.7711 55.44ZM81.2951 61.344C81.3911 60.48 81.4391 59.496 81.4391 58.392C81.4391 57.408 81.4271 56.664 81.4031 56.16C78.8591 55.92 75.7991 55.8 72.2231 55.8L66.5711 55.836C66.4751 56.22 66.4271 57.144 66.4271 58.608C66.4271 60.024 66.5111 60.9 66.6791 61.236C66.9671 61.308 67.3031 61.344 67.6871 61.344L69.1271 61.308C69.6071 61.308 70.0991 61.38 70.6031 61.524C71.1071 61.668 71.3591 61.884 71.3591 62.172C71.3591 62.892 71.3471 63.492 71.3231 63.972L71.2871 66.384C71.2871 67.488 71.3111 69.144 71.3591 71.352L71.3951 76.32C71.3951 76.56 71.3711 77.04 71.3231 77.76C71.2751 78.624 71.2511 79.272 71.2511 79.704C71.2511 80.016 71.2751 80.388 71.3231 80.82C71.6591 80.748 72.1631 80.712 72.8351 80.712C73.3871 80.712 73.8071 80.724 74.0951 80.748L75.3551 80.784C75.9071 80.784 76.4111 80.736 76.8671 80.64C76.7231 77.088 76.6511 72.612 76.6511 67.212V63.396V62.208C76.6511 62.088 76.6511 61.98 76.6511 61.884C76.6751 61.764 76.6991 61.68 76.7231 61.632V61.668C76.7231 61.38 77.6711 61.236 79.5671 61.236C80.3351 61.236 80.9111 61.272 81.2951 61.344ZM76.7951 61.488L76.8311 61.452L76.7591 61.56L76.7951 61.488ZM99.776 80.784L99.632 80.964C99.056 81.108 98.3 81.18 97.364 81.18L95.06 81.144C94.988 81.168 94.892 81.18 94.772 81.18C94.628 81.18 94.52 81.156 94.448 81.108C94.4 81.084 94.364 81.06 94.34 81.036C94.148 79.74 94.052 78.036 94.052 75.924C94.052 75.708 94.04 75.096 94.016 74.088C93.992 73.08 93.92 72.12 93.8 71.208C93.128 71.088 92.528 71.028 92 71.028C91.328 71.028 90.632 71.1 89.912 71.244C89.816 71.916 89.768 72.684 89.768 73.548C89.768 74.052 89.792 74.832 89.84 75.888C89.888 76.944 89.912 77.724 89.912 78.228C89.912 79.236 89.852 80.1 89.732 80.82C89.684 80.82 89.66 80.844 89.66 80.892C89.324 81.108 88.88 81.216 88.328 81.216C88.016 81.216 87.548 81.168 86.924 81.072C86.3 80.976 85.88 80.928 85.664 80.928C85.352 80.928 85.052 80.988 84.764 81.108C84.356 80.964 84.152 79.608 84.152 77.04V74.952C84.152 73.296 84.104 70.836 84.008 67.572C83.912 64.308 83.864 61.836 83.864 60.156C83.864 59.508 83.876 58.632 83.9 57.528C83.924 56.4 83.948 55.836 83.972 55.836V55.872L84.152 55.656C84.392 55.656 84.62 55.668 84.836 55.692C85.076 55.716 85.328 55.728 85.592 55.728L86.636 55.692C87.116 55.644 87.476 55.62 87.716 55.62C88.46 55.62 88.892 55.728 89.012 55.944C89.132 56.736 89.216 57.588 89.264 58.5C89.312 59.412 89.336 59.988 89.336 60.228C89.384 62.22 89.492 63.708 89.66 64.692H89.624L89.732 65.268C90.212 65.364 90.764 65.412 91.388 65.412C92.036 65.412 92.696 65.352 93.368 65.232C93.536 63 93.62 61.068 93.62 59.436C93.62 58.308 93.584 57.168 93.512 56.016C93.728 55.8 94.232 55.62 95.024 55.476C95.816 55.332 96.524 55.26 97.148 55.26C97.58 55.26 97.928 55.308 98.192 55.404H98.624C98.624 55.404 98.684 55.464 98.804 55.584L99.776 80.784ZM98.192 80.748C98.6 80.748 99.008 80.712 99.416 80.64L98.444 55.764C98.276 55.764 98.132 55.752 98.012 55.728C96.572 55.728 95.192 55.86 93.872 56.124C93.944 57.204 93.98 58.284 93.98 59.364C93.98 61.068 93.896 63.072 93.728 65.376C93.608 65.496 93.548 65.556 93.548 65.556H93.62C93.428 65.556 93.02 65.592 92.396 65.664C91.796 65.736 91.316 65.772 90.956 65.772C90.356 65.772 89.84 65.664 89.408 65.448C89.24 64.368 89.108 62.76 89.012 60.624C88.916 58.608 88.796 57.096 88.652 56.088C88.484 56.064 88.232 56.052 87.896 56.052C87.608 56.052 87.176 56.076 86.6 56.124C86.024 56.172 85.616 56.196 85.376 56.196C84.968 56.196 84.62 56.148 84.332 56.052C84.26 57.78 84.224 59.496 84.224 61.2C84.224 64.776 84.248 67.92 84.296 70.632C84.368 73.32 84.5 75.96 84.692 78.552C84.692 78.864 84.704 79.104 84.728 79.272C84.728 79.92 84.752 80.4 84.8 80.712C85.064 80.64 85.316 80.604 85.556 80.604C85.844 80.604 86.3 80.652 86.924 80.748C87.5 80.844 87.944 80.892 88.256 80.892C88.688 80.892 89.06 80.808 89.372 80.64C89.492 79.92 89.552 79.032 89.552 77.976L89.516 75.708C89.468 74.7 89.444 73.944 89.444 73.44C89.444 72.552 89.492 71.76 89.588 71.064C89.78 70.968 90.176 70.872 90.776 70.776C91.376 70.68 91.976 70.632 92.576 70.632C93.32 70.632 93.824 70.728 94.088 70.92C94.16 70.992 94.22 71.352 94.268 72C94.316 72.648 94.34 73.14 94.34 73.476C94.34 75.108 94.352 76.476 94.376 77.58C94.424 78.66 94.52 79.74 94.664 80.82H94.88C95.192 80.724 95.612 80.676 96.14 80.676C96.572 80.676 96.908 80.688 97.148 80.712L98.192 80.748ZM118.281 77.832C118.281 78.696 118.257 79.392 118.209 79.92C118.161 80.448 118.017 80.832 117.777 81.072C116.745 81.072 115.221 81.096 113.205 81.144C111.141 81.192 109.605 81.216 108.597 81.216C106.725 81.216 104.865 81.144 103.017 81L102.837 80.784C102.837 79.008 102.813 76.344 102.765 72.792C102.693 70.128 102.657 67.464 102.657 64.8C102.657 61.344 102.729 58.464 102.873 56.16L103.053 56.016C104.229 55.944 106.005 55.884 108.381 55.836C109.173 55.836 110.361 55.812 111.945 55.764C112.257 55.764 112.773 55.74 113.493 55.692C114.213 55.62 114.933 55.584 115.653 55.584C116.469 55.584 117.249 55.656 117.993 55.8C118.161 56.16 118.245 56.664 118.245 57.312C118.245 57.768 118.221 58.428 118.173 59.292L118.137 61.128C117.969 61.488 116.841 61.668 114.753 61.668L111.693 61.632C111.333 61.632 110.793 61.656 110.073 61.704L108.561 61.74C108.561 61.956 108.537 62.28 108.489 62.712C108.441 63.432 108.417 63.972 108.417 64.332C108.417 64.836 108.465 65.28 108.561 65.664C109.161 65.76 109.881 65.808 110.721 65.808L112.881 65.772C113.073 66.18 113.169 66.744 113.169 67.464C113.169 68.064 113.157 68.508 113.133 68.796L113.097 70.164C113.097 70.548 113.109 70.824 113.133 70.992C112.989 71.256 112.389 71.388 111.333 71.388L109.821 71.352C109.677 71.4 109.497 71.436 109.281 71.46C109.089 71.46 108.921 71.472 108.777 71.496C108.633 72.216 108.561 72.972 108.561 73.764C108.561 74.412 108.621 75.072 108.741 75.744C109.461 75.744 110.085 75.756 110.613 75.78C111.165 75.804 111.621 75.828 111.981 75.852C113.757 75.948 115.077 75.996 115.941 75.996C116.397 75.996 117.105 75.972 118.065 75.924C118.065 75.924 118.125 75.984 118.245 76.104V76.176C118.269 76.56 118.281 77.112 118.281 77.832ZM117.633 80.712C117.825 79.872 117.921 78.936 117.921 77.904C117.921 77.208 117.909 76.68 117.885 76.32C117.501 76.344 116.925 76.356 116.157 76.356C115.317 76.356 114.057 76.308 112.377 76.212C111.945 76.188 111.417 76.164 110.793 76.14C110.169 76.116 109.449 76.104 108.633 76.104C108.369 76.104 108.237 75.408 108.237 74.016C108.237 72.936 108.273 72.204 108.345 71.82C108.417 71.436 108.585 71.196 108.849 71.1C109.137 70.98 109.665 70.92 110.433 70.92C110.769 70.92 111.021 70.932 111.189 70.956L111.945 70.992C112.305 70.992 112.581 70.956 112.773 70.884L112.809 67.824C112.809 67.272 112.773 66.708 112.701 66.132L110.649 66.096C110.529 66.096 110.361 66.108 110.145 66.132C109.929 66.156 109.665 66.168 109.353 66.168C108.441 66.168 107.985 65.748 107.985 64.908C107.985 64.068 107.997 63.36 108.021 62.784C108.045 62.208 108.129 61.764 108.273 61.452L108.309 61.416C108.693 61.416 109.317 61.392 110.181 61.344C110.997 61.296 111.633 61.272 112.089 61.272L114.213 61.308C115.533 61.308 116.721 61.212 117.777 61.02L117.813 59.328C117.861 58.56 117.885 57.972 117.885 57.564C117.885 56.916 117.861 56.436 117.813 56.124C117.237 56.028 116.529 55.98 115.689 55.98C115.113 55.98 114.297 56.004 113.241 56.052C112.617 56.1 112.185 56.124 111.945 56.124C110.409 56.172 109.245 56.196 108.453 56.196C106.125 56.244 104.385 56.304 103.233 56.376C103.089 58.656 103.017 61.5 103.017 64.908C103.017 67.548 103.053 70.164 103.125 72.756C103.173 76.26 103.197 78.888 103.197 80.64C105.045 80.784 106.869 80.856 108.669 80.856C109.653 80.856 111.153 80.832 113.169 80.784C115.137 80.736 116.625 80.712 117.633 80.712ZM134.288 61.956L134.252 62.064L134.216 62.1C134.072 62.556 134 63.168 134 63.936L134.036 65.088C134.06 65.304 134.072 65.592 134.072 65.952C134.072 66.36 134.048 66.996 134 67.86C133.952 68.772 133.928 69.468 133.928 69.948C133.928 71.388 134.096 72.66 134.432 73.764C134.792 74.844 135.464 75.384 136.448 75.384C136.832 75.384 137.192 75.3 137.528 75.132C137.864 74.94 138.14 74.676 138.356 74.34C138.5 74.1 138.596 73.728 138.644 73.224C138.692 72.696 138.716 72.384 138.716 72.288C138.74 71.736 138.776 71.328 138.824 71.064C138.872 70.776 138.956 70.596 139.076 70.524C139.292 70.596 139.52 70.632 139.76 70.632C139.952 70.632 140.24 70.608 140.624 70.56C140.96 70.488 141.272 70.452 141.56 70.452C142.592 70.452 143.372 70.548 143.9 70.74C144.236 71.1 144.404 71.988 144.404 73.404C144.404 74.94 144.056 76.332 143.36 77.58C142.664 78.828 141.644 79.824 140.3 80.568C138.956 81.288 137.36 81.648 135.512 81.648C132.968 81.648 131.072 80.988 129.824 79.668C129.368 79.188 129.032 78.648 128.816 78.048C128.624 77.424 128.504 76.872 128.456 76.392C128.432 75.888 128.408 75.072 128.384 73.944C128.336 72.552 128.312 71.484 128.312 70.74V66.78L128.348 64.224C128.372 63.672 128.384 62.832 128.384 61.704C128.336 61.584 128.312 61.392 128.312 61.128C128.312 60.648 128.48 60 128.816 59.184C129.464 57.576 130.292 56.412 131.3 55.692C132.332 54.972 133.808 54.612 135.728 54.612C137.264 54.612 138.704 55.02 140.048 55.836C141.392 56.652 142.46 57.744 143.252 59.112C144.068 60.456 144.476 61.884 144.476 63.396C144.476 64.308 144.344 65.148 144.08 65.916C143.84 66.156 143.132 66.276 141.956 66.276C140.372 66.276 139.208 66.096 138.464 65.736C138.392 65.424 138.332 64.908 138.284 64.188C138.26 63.516 138.2 62.976 138.104 62.568C138.032 62.16 137.84 61.812 137.528 61.524C137.24 61.236 136.784 61.092 136.16 61.092C136.016 61.14 135.812 61.176 135.548 61.2C135.284 61.224 135.068 61.26 134.9 61.308C134.756 61.356 134.612 61.452 134.468 61.596C134.372 61.812 134.312 61.944 134.288 61.992V61.956ZM134.216 61.344C134.648 60.912 135.236 60.696 135.98 60.696C136.748 60.696 137.324 60.888 137.708 61.272C138.116 61.632 138.368 62.064 138.464 62.568C138.584 63.072 138.656 63.696 138.68 64.44C138.68 64.56 138.692 64.74 138.716 64.98C138.74 65.22 138.764 65.412 138.788 65.556C140.132 65.796 141.188 65.916 141.956 65.916C142.7 65.916 143.3 65.844 143.756 65.7C144.02 64.86 144.152 64.056 144.152 63.288C144.152 61.848 143.744 60.492 142.928 59.22C142.136 57.948 141.068 56.928 139.724 56.16C138.38 55.392 136.916 55.008 135.332 55.008C134.108 55.008 132.992 55.272 131.984 55.8C130.976 56.304 130.172 57.048 129.572 58.032C128.996 59.016 128.708 60.18 128.708 61.524C128.78 61.764 128.816 62.1 128.816 62.532C128.816 63.348 128.78 64.44 128.708 65.808C128.66 66.432 128.636 66.948 128.636 67.356C128.636 68.34 128.66 69.792 128.708 71.712L128.744 73.908C128.744 74.1 128.744 74.616 128.744 75.456C128.768 76.296 128.888 77.052 129.104 77.724C129.32 78.396 129.644 78.96 130.076 79.416C131.228 80.664 133.016 81.288 135.44 81.288C137.216 81.288 138.752 80.952 140.048 80.28C141.344 79.608 142.328 78.684 143 77.508C143.696 76.308 144.044 74.952 144.044 73.44C144.044 72.6 143.936 71.808 143.72 71.064C143.528 70.992 143.24 70.956 142.856 70.956C142.496 70.956 142.232 70.932 142.064 70.884C141.608 70.884 141.26 70.896 141.02 70.92L139.976 70.956C139.616 70.956 139.352 70.944 139.184 70.92C139.112 71.232 139.076 71.7 139.076 72.324C139.076 73.092 139.016 73.656 138.896 74.016C138.704 74.568 138.392 75 137.96 75.312C137.552 75.6 137.096 75.744 136.592 75.744C135.488 75.744 134.708 75.204 134.252 74.124C133.82 73.02 133.604 71.52 133.604 69.624C133.604 68.952 133.64 67.716 133.712 65.916L133.676 64.332C133.676 62.82 133.844 61.848 134.18 61.416L134.216 61.344ZM162.234 63.468C162.234 64.116 162.222 64.608 162.198 64.944L162.162 66.636L162.198 69.84C162.198 74.424 161.646 77.484 160.542 79.02C159.942 79.86 158.958 80.52 157.59 81C156.246 81.504 154.842 81.756 153.378 81.756C151.362 81.756 149.874 81.372 148.914 80.604C147.954 79.812 147.354 78.876 147.114 77.796C146.874 76.716 146.742 75.312 146.718 73.584C146.718 72.936 146.706 72.468 146.682 72.18C146.562 70.164 146.502 67.752 146.502 64.944C146.502 63.528 146.598 62.268 146.79 61.164C146.982 60.06 147.366 59.076 147.942 58.212C148.518 57.348 149.346 56.7 150.426 56.268C151.53 55.812 152.742 55.584 154.062 55.584C155.214 55.584 156.354 55.764 157.482 56.124C158.634 56.46 159.558 56.928 160.254 57.528C160.686 57.912 161.13 58.608 161.586 59.616C161.826 60.192 161.994 60.792 162.09 61.416C162.186 62.016 162.234 62.7 162.234 63.468ZM154.386 55.944C153.066 55.944 151.842 56.16 150.714 56.592C149.586 57 148.758 57.6 148.23 58.392C147.702 59.184 147.342 60.108 147.15 61.164C146.958 62.22 146.862 63.408 146.862 64.728C146.862 67.608 146.922 70.08 147.042 72.144C147.066 72.48 147.078 72.996 147.078 73.692C147.078 74.796 147.114 75.72 147.186 76.464C147.282 77.184 147.486 77.868 147.798 78.516C148.206 79.524 148.866 80.256 149.778 80.712C150.714 81.144 151.902 81.36 153.342 81.36C154.782 81.36 156.15 81.132 157.446 80.676C158.742 80.22 159.678 79.596 160.254 78.804C160.878 77.94 161.298 76.752 161.514 75.24C161.73 73.728 161.838 72.012 161.838 70.092L161.802 66.996L161.838 65.304C161.886 64.536 161.91 63.936 161.91 63.504C161.91 62.016 161.694 60.768 161.262 59.76C160.686 58.464 159.834 57.504 158.706 56.88C157.578 56.256 156.138 55.944 154.386 55.944ZM157.698 68.004L157.662 70.812C157.614 72.108 157.59 73.068 157.59 73.692C157.59 74.604 157.23 75.324 156.51 75.852C155.79 76.38 155.01 76.644 154.17 76.644C153.138 76.644 152.358 76.344 151.83 75.744C151.326 75.144 150.99 74.424 150.822 73.584C150.654 72.744 150.534 71.652 150.462 70.308L150.426 69.552C150.378 68.688 150.354 68.004 150.354 67.5C150.354 65.7 150.678 64.104 151.326 62.712C151.974 61.32 153.042 60.624 154.53 60.624C155.274 60.624 155.85 60.816 156.258 61.2C156.666 61.56 156.942 62.016 157.086 62.568C157.23 63.096 157.362 63.804 157.482 64.692C157.506 65.028 157.566 65.448 157.662 65.952V66.024L157.698 68.004ZM156.618 62.208C156.066 61.368 155.334 60.948 154.422 60.948C153.15 60.948 152.214 61.596 151.614 62.892C151.014 64.164 150.714 65.652 150.714 67.356C150.714 67.86 150.738 68.424 150.786 69.048C150.834 69.648 150.87 70.068 150.894 70.308L151.002 71.352C151.026 71.52 151.038 71.76 151.038 72.072C151.086 72.792 151.146 73.392 151.218 73.872C151.314 74.328 151.47 74.772 151.686 75.204C152.022 75.54 152.43 75.804 152.91 75.996C153.39 76.188 153.87 76.284 154.35 76.284C155.094 76.284 155.754 76.056 156.33 75.6C156.93 75.144 157.23 74.496 157.23 73.656C157.23 72.984 157.254 72.024 157.302 70.776L157.338 68.004L157.302 66.06C157.23 65.58 157.194 65.124 157.194 64.692C157.17 64.116 157.122 63.648 157.05 63.288C156.978 62.928 156.834 62.568 156.618 62.208ZM178.088 58.68C179.072 60.432 179.72 61.908 180.032 63.108C180.368 64.308 180.536 65.7 180.536 67.284C180.536 67.74 180.512 68.688 180.464 70.128C180.464 70.296 180.404 70.776 180.284 71.568C180.164 72.168 180.104 72.696 180.104 73.152L180.068 73.188C180.044 73.452 179.936 73.788 179.744 74.196C179.552 74.604 179.432 74.856 179.384 74.952C178.904 76.056 178.304 77.148 177.584 78.228C176.888 79.284 176.144 80.208 175.352 81C173.936 81.096 172.364 81.144 170.636 81.144L165.992 81.108C165.992 81.204 166.004 81.288 166.028 81.36L165.884 81.108H165.056L165.848 81.036H165.812C165.764 81.012 165.704 81 165.632 81C165.224 77.688 165.02 73.584 165.02 68.688L165.056 64.044C165.08 63.012 165.092 61.464 165.092 59.4L165.056 56.304L165.128 56.16C165.104 56.16 165.092 56.172 165.092 56.196C165.164 55.764 166.568 55.548 169.304 55.548L171.68 55.512C172.688 55.512 173.54 55.584 174.236 55.728C174.932 55.872 175.592 56.172 176.216 56.628C176.864 57.084 177.488 57.768 178.088 58.68ZM180.104 70.092C180.152 68.604 180.176 67.632 180.176 67.176C180.176 65.64 180.02 64.296 179.708 63.144C179.396 61.968 178.76 60.54 177.8 58.86C176.84 57.444 175.568 56.472 173.984 55.944C173.552 55.968 172.916 55.98 172.076 55.98H169.844C167.996 55.98 166.52 56.088 165.416 56.304V56.34L165.452 59.616C165.452 61.608 165.44 63.096 165.416 64.08L165.38 68.58C165.38 73.38 165.572 77.436 165.956 80.748L170.888 80.784C172.496 80.784 173.936 80.736 175.208 80.64C176.312 79.248 177.236 77.964 177.98 76.788C178.724 75.612 179.3 74.4 179.708 73.152V73.188C179.756 73.14 179.78 73.116 179.78 73.116H179.744C179.744 72.66 179.804 72.132 179.924 71.532C180.044 70.74 180.104 70.26 180.104 70.092ZM172.328 63.216C173.528 63.216 174.404 63.804 174.956 64.98C175.532 66.156 175.82 67.416 175.82 68.76C175.82 69.72 175.472 70.788 174.776 71.964L174.812 71.928C174.644 72.264 174.356 72.6 173.948 72.936C173.564 73.272 173.24 73.44 172.976 73.44C172.904 73.44 172.856 73.428 172.832 73.404C172.544 73.476 172.1 73.512 171.5 73.512C170.948 73.512 170.576 73.392 170.384 73.152C170.192 72.912 170.096 72.552 170.096 72.072C170.096 71.832 170.108 71.592 170.132 71.352C170.156 71.088 170.168 70.812 170.168 70.524V63.576C170.408 63.336 171.128 63.216 172.328 63.216ZM174.488 71.784C175.136 70.728 175.46 69.624 175.46 68.472C175.46 67.752 175.34 67.008 175.1 66.24C174.86 65.472 174.5 64.836 174.02 64.332C173.54 63.804 172.964 63.54 172.292 63.54C172.076 63.54 171.788 63.564 171.428 63.612C171.068 63.66 170.768 63.696 170.528 63.72L170.564 65.124C170.588 65.412 170.6 65.856 170.6 66.456C170.6 67.008 170.576 67.86 170.528 69.012C170.48 70.164 170.456 71.04 170.456 71.64C170.456 72.072 170.492 72.42 170.564 72.684C170.66 72.924 170.852 73.08 171.14 73.152C171.284 73.152 171.5 73.14 171.788 73.116C172.076 73.068 172.376 73.044 172.688 73.044C172.832 73.044 172.928 73.056 172.976 73.08H173.012C173.132 73.08 173.384 72.912 173.768 72.576C174.152 72.24 174.392 71.976 174.488 71.784ZM198.768 77.832C198.768 78.696 198.744 79.392 198.696 79.92C198.648 80.448 198.504 80.832 198.264 81.072C197.232 81.072 195.708 81.096 193.692 81.144C191.628 81.192 190.092 81.216 189.084 81.216C187.212 81.216 185.352 81.144 183.504 81L183.324 80.784C183.324 79.008 183.3 76.344 183.252 72.792C183.18 70.128 183.144 67.464 183.144 64.8C183.144 61.344 183.216 58.464 183.36 56.16L183.54 56.016C184.716 55.944 186.492 55.884 188.868 55.836C189.66 55.836 190.848 55.812 192.432 55.764C192.744 55.764 193.26 55.74 193.98 55.692C194.7 55.62 195.42 55.584 196.14 55.584C196.956 55.584 197.736 55.656 198.48 55.8C198.648 56.16 198.732 56.664 198.732 57.312C198.732 57.768 198.708 58.428 198.66 59.292L198.624 61.128C198.456 61.488 197.328 61.668 195.24 61.668L192.18 61.632C191.82 61.632 191.28 61.656 190.56 61.704L189.048 61.74C189.048 61.956 189.024 62.28 188.976 62.712C188.928 63.432 188.904 63.972 188.904 64.332C188.904 64.836 188.952 65.28 189.048 65.664C189.648 65.76 190.368 65.808 191.208 65.808L193.368 65.772C193.56 66.18 193.656 66.744 193.656 67.464C193.656 68.064 193.644 68.508 193.62 68.796L193.584 70.164C193.584 70.548 193.596 70.824 193.62 70.992C193.476 71.256 192.876 71.388 191.82 71.388L190.308 71.352C190.164 71.4 189.984 71.436 189.768 71.46C189.576 71.46 189.408 71.472 189.264 71.496C189.12 72.216 189.048 72.972 189.048 73.764C189.048 74.412 189.108 75.072 189.228 75.744C189.948 75.744 190.572 75.756 191.1 75.78C191.652 75.804 192.108 75.828 192.468 75.852C194.244 75.948 195.564 75.996 196.428 75.996C196.884 75.996 197.592 75.972 198.552 75.924C198.552 75.924 198.612 75.984 198.732 76.104V76.176C198.756 76.56 198.768 77.112 198.768 77.832ZM198.12 80.712C198.312 79.872 198.408 78.936 198.408 77.904C198.408 77.208 198.396 76.68 198.372 76.32C197.988 76.344 197.412 76.356 196.644 76.356C195.804 76.356 194.544 76.308 192.864 76.212C192.432 76.188 191.904 76.164 191.28 76.14C190.656 76.116 189.936 76.104 189.12 76.104C188.856 76.104 188.724 75.408 188.724 74.016C188.724 72.936 188.76 72.204 188.832 71.82C188.904 71.436 189.072 71.196 189.336 71.1C189.624 70.98 190.152 70.92 190.92 70.92C191.256 70.92 191.508 70.932 191.676 70.956L192.432 70.992C192.792 70.992 193.068 70.956 193.26 70.884L193.296 67.824C193.296 67.272 193.26 66.708 193.188 66.132L191.136 66.096C191.016 66.096 190.848 66.108 190.632 66.132C190.416 66.156 190.152 66.168 189.84 66.168C188.928 66.168 188.472 65.748 188.472 64.908C188.472 64.068 188.484 63.36 188.508 62.784C188.532 62.208 188.616 61.764 188.76 61.452L188.796 61.416C189.18 61.416 189.804 61.392 190.668 61.344C191.484 61.296 192.12 61.272 192.576 61.272L194.7 61.308C196.02 61.308 197.208 61.212 198.264 61.02L198.3 59.328C198.348 58.56 198.372 57.972 198.372 57.564C198.372 56.916 198.348 56.436 198.3 56.124C197.724 56.028 197.016 55.98 196.176 55.98C195.6 55.98 194.784 56.004 193.728 56.052C193.104 56.1 192.672 56.124 192.432 56.124C190.896 56.172 189.732 56.196 188.94 56.196C186.612 56.244 184.872 56.304 183.72 56.376C183.576 58.656 183.504 61.5 183.504 64.908C183.504 67.548 183.54 70.164 183.612 72.756C183.66 76.26 183.684 78.888 183.684 80.64C185.532 80.784 187.356 80.856 189.156 80.856C190.14 80.856 191.64 80.832 193.656 80.784C195.624 80.736 197.112 80.712 198.12 80.712ZM214.935 55.44C218.295 55.44 220.971 55.536 222.963 55.728V59.4C222.963 60.48 222.843 61.26 222.603 61.74C222.195 61.644 221.715 61.596 221.163 61.596C220.803 61.596 220.311 61.62 219.687 61.668C219.015 61.716 218.535 61.74 218.247 61.74L218.211 63.9C218.187 64.38 218.175 65.088 218.175 66.024C218.175 67.656 218.223 70.128 218.319 73.44C218.343 74.256 218.367 75.276 218.391 76.5C218.415 77.724 218.427 79.152 218.427 80.784C218.331 81.024 217.815 81.144 216.879 81.144L215.475 81.108C214.803 81.06 214.323 81.036 214.035 81.036C213.387 81.036 212.835 81.096 212.379 81.216C212.187 81.096 212.091 80.844 212.091 80.46C212.091 80.004 212.115 79.32 212.163 78.408L212.199 76.356V71.604C212.199 67.404 212.163 64.236 212.091 62.1C211.803 61.956 211.455 61.848 211.047 61.776C210.639 61.68 210.255 61.632 209.895 61.632L208.131 61.668C207.795 61.668 207.567 61.548 207.447 61.308C207.351 61.044 207.303 60.672 207.303 60.192L207.339 59.256V57.492C207.339 57.372 207.339 57.132 207.339 56.772C207.339 56.388 207.363 56.028 207.411 55.692H207.375L207.555 55.476L214.935 55.44ZM222.459 61.344C222.555 60.48 222.603 59.496 222.603 58.392C222.603 57.408 222.591 56.664 222.567 56.16C220.023 55.92 216.963 55.8 213.387 55.8L207.735 55.836C207.639 56.22 207.591 57.144 207.591 58.608C207.591 60.024 207.675 60.9 207.843 61.236C208.131 61.308 208.467 61.344 208.851 61.344L210.291 61.308C210.771 61.308 211.263 61.38 211.767 61.524C212.271 61.668 212.523 61.884 212.523 62.172C212.523 62.892 212.511 63.492 212.487 63.972L212.451 66.384C212.451 67.488 212.475 69.144 212.523 71.352L212.559 76.32C212.559 76.56 212.535 77.04 212.487 77.76C212.439 78.624 212.415 79.272 212.415 79.704C212.415 80.016 212.439 80.388 212.487 80.82C212.823 80.748 213.327 80.712 213.999 80.712C214.551 80.712 214.971 80.724 215.259 80.748L216.519 80.784C217.071 80.784 217.575 80.736 218.031 80.64C217.887 77.088 217.815 72.612 217.815 67.212V63.396V62.208C217.815 62.088 217.815 61.98 217.815 61.884C217.839 61.764 217.863 61.68 217.887 61.632V61.668C217.887 61.38 218.835 61.236 220.731 61.236C221.499 61.236 222.075 61.272 222.459 61.344ZM217.959 61.488L217.995 61.452L217.923 61.56L217.959 61.488ZM240.436 63.468C240.436 64.116 240.424 64.608 240.4 64.944L240.364 66.636L240.4 69.84C240.4 74.424 239.848 77.484 238.744 79.02C238.144 79.86 237.16 80.52 235.792 81C234.448 81.504 233.044 81.756 231.58 81.756C229.564 81.756 228.076 81.372 227.116 80.604C226.156 79.812 225.556 78.876 225.316 77.796C225.076 76.716 224.944 75.312 224.92 73.584C224.92 72.936 224.908 72.468 224.884 72.18C224.764 70.164 224.704 67.752 224.704 64.944C224.704 63.528 224.8 62.268 224.992 61.164C225.184 60.06 225.568 59.076 226.144 58.212C226.72 57.348 227.548 56.7 228.628 56.268C229.732 55.812 230.944 55.584 232.264 55.584C233.416 55.584 234.556 55.764 235.684 56.124C236.836 56.46 237.76 56.928 238.456 57.528C238.888 57.912 239.332 58.608 239.788 59.616C240.028 60.192 240.196 60.792 240.292 61.416C240.388 62.016 240.436 62.7 240.436 63.468ZM232.588 55.944C231.268 55.944 230.044 56.16 228.916 56.592C227.788 57 226.96 57.6 226.432 58.392C225.904 59.184 225.544 60.108 225.352 61.164C225.16 62.22 225.064 63.408 225.064 64.728C225.064 67.608 225.124 70.08 225.244 72.144C225.268 72.48 225.28 72.996 225.28 73.692C225.28 74.796 225.316 75.72 225.388 76.464C225.484 77.184 225.688 77.868 226 78.516C226.408 79.524 227.068 80.256 227.98 80.712C228.916 81.144 230.104 81.36 231.544 81.36C232.984 81.36 234.352 81.132 235.648 80.676C236.944 80.22 237.88 79.596 238.456 78.804C239.08 77.94 239.5 76.752 239.716 75.24C239.932 73.728 240.04 72.012 240.04 70.092L240.004 66.996L240.04 65.304C240.088 64.536 240.112 63.936 240.112 63.504C240.112 62.016 239.896 60.768 239.464 59.76C238.888 58.464 238.036 57.504 236.908 56.88C235.78 56.256 234.34 55.944 232.588 55.944ZM235.9 68.004L235.864 70.812C235.816 72.108 235.792 73.068 235.792 73.692C235.792 74.604 235.432 75.324 234.712 75.852C233.992 76.38 233.212 76.644 232.372 76.644C231.34 76.644 230.56 76.344 230.032 75.744C229.528 75.144 229.192 74.424 229.024 73.584C228.856 72.744 228.736 71.652 228.664 70.308L228.628 69.552C228.58 68.688 228.556 68.004 228.556 67.5C228.556 65.7 228.88 64.104 229.528 62.712C230.176 61.32 231.244 60.624 232.732 60.624C233.476 60.624 234.052 60.816 234.46 61.2C234.868 61.56 235.144 62.016 235.288 62.568C235.432 63.096 235.564 63.804 235.684 64.692C235.708 65.028 235.768 65.448 235.864 65.952V66.024L235.9 68.004ZM234.82 62.208C234.268 61.368 233.536 60.948 232.624 60.948C231.352 60.948 230.416 61.596 229.816 62.892C229.216 64.164 228.916 65.652 228.916 67.356C228.916 67.86 228.94 68.424 228.988 69.048C229.036 69.648 229.072 70.068 229.096 70.308L229.204 71.352C229.228 71.52 229.24 71.76 229.24 72.072C229.288 72.792 229.348 73.392 229.42 73.872C229.516 74.328 229.672 74.772 229.888 75.204C230.224 75.54 230.632 75.804 231.112 75.996C231.592 76.188 232.072 76.284 232.552 76.284C233.296 76.284 233.956 76.056 234.532 75.6C235.132 75.144 235.432 74.496 235.432 73.656C235.432 72.984 235.456 72.024 235.504 70.776L235.54 68.004L235.504 66.06C235.432 65.58 235.396 65.124 235.396 64.692C235.372 64.116 235.324 63.648 235.252 63.288C235.18 62.928 235.036 62.568 234.82 62.208ZM261.193 67.824C262.009 67.824 262.897 67.884 263.857 68.004C264.961 68.1 265.717 68.148 266.125 68.148L266.269 68.22C266.389 68.34 266.473 68.904 266.521 69.912C266.593 70.896 266.629 71.736 266.629 72.432C266.629 74.016 266.557 75.348 266.413 76.428C266.293 77.484 265.945 78.408 265.369 79.2C264.673 80.16 263.629 80.82 262.237 81.18C260.845 81.54 259.405 81.72 257.917 81.72C255.757 81.72 254.101 81.06 252.949 79.74C252.013 78.684 251.401 77.076 251.113 74.916C250.825 72.732 250.681 70.272 250.681 67.536V65.736C250.681 63.6 250.897 61.728 251.329 60.12C251.761 58.488 252.637 57.3 253.957 56.556C254.677 56.148 255.445 55.884 256.261 55.764C257.077 55.644 258.061 55.584 259.213 55.584C260.581 55.584 261.805 55.896 262.885 56.52C263.989 57.144 264.841 57.996 265.441 59.076C266.065 60.132 266.377 61.32 266.377 62.64C266.377 62.784 266.341 63.012 266.269 63.324C266.221 63.636 266.197 63.876 266.197 64.044C265.933 64.188 265.549 64.26 265.045 64.26L264.469 64.224C264.229 64.296 263.869 64.332 263.389 64.332C262.525 64.332 261.889 64.26 261.481 64.116L261.157 63.36C260.869 62.712 260.605 62.22 260.365 61.884C260.125 61.524 259.765 61.272 259.285 61.128L257.737 61.092C257.065 61.332 256.597 62.328 256.333 64.08C256.069 65.808 255.937 68.088 255.937 70.92C255.937 72.264 256.081 73.392 256.369 74.304C256.681 75.216 257.269 75.804 258.133 76.068C258.853 76.068 259.429 75.996 259.861 75.852C260.317 75.684 260.665 75.348 260.905 74.844C261.169 74.34 261.301 73.596 261.301 72.612H260.401C260.233 72.708 259.993 72.756 259.681 72.756C259.105 72.756 258.733 72.636 258.565 72.396C258.421 72.132 258.349 71.64 258.349 70.92C258.349 70.488 258.385 70.2 258.457 70.056L258.421 69.264C258.397 69.096 258.385 68.856 258.385 68.544L258.601 68.292C259.225 67.98 260.089 67.824 261.193 67.824ZM258.745 68.688C258.841 68.976 258.889 69.3 258.889 69.66C258.889 69.9 258.865 70.212 258.817 70.596C258.769 71.076 258.745 71.448 258.745 71.712C258.745 71.928 258.781 72.096 258.853 72.216C258.925 72.312 259.093 72.36 259.357 72.36C259.525 72.36 259.753 72.336 260.041 72.288C260.329 72.24 260.557 72.216 260.725 72.216C261.133 72.216 261.397 72.276 261.517 72.396C261.661 72.516 261.733 72.72 261.733 73.008C261.733 74.088 261.445 74.94 260.869 75.564C260.293 76.164 259.537 76.464 258.601 76.464C257.329 76.464 256.513 75.864 256.153 74.664C255.793 73.44 255.613 71.856 255.613 69.912C255.613 69.216 255.637 68.244 255.685 66.996C255.685 66.78 255.709 66.084 255.757 64.908C255.805 63.708 256.021 62.724 256.405 61.956C256.813 61.164 257.389 60.768 258.133 60.768C259.165 60.768 259.945 61.02 260.473 61.524C261.025 62.004 261.433 62.76 261.697 63.792L262.993 63.828C263.569 63.876 264.001 63.9 264.289 63.9C264.481 63.852 264.625 63.828 264.721 63.828L265.297 63.864C265.345 63.84 265.429 63.828 265.549 63.828C265.765 63.828 265.897 63.732 265.945 63.54C265.993 63.324 266.017 63.096 266.017 62.856C266.017 62.616 266.017 62.46 266.017 62.388C266.017 60.324 265.249 58.74 263.713 57.636C262.201 56.508 260.317 55.944 258.061 55.944C257.077 55.944 256.141 56.1 255.253 56.412C254.365 56.7 253.597 57.156 252.949 57.78C252.397 58.284 252.001 58.944 251.761 59.76C251.545 60.552 251.389 61.464 251.293 62.496C251.149 64.08 251.077 66.06 251.077 68.436C251.077 74.076 251.785 77.76 253.201 79.488C254.233 80.736 255.805 81.36 257.917 81.36C259.549 81.36 261.097 81.144 262.561 80.712C264.025 80.28 265.009 79.488 265.513 78.336C266.065 77.112 266.341 75.528 266.341 73.584C266.341 72.816 266.305 72 266.233 71.136C266.161 70.272 266.113 69.732 266.089 69.516L265.981 68.508C265.573 68.508 264.865 68.46 263.857 68.364C262.657 68.268 261.769 68.22 261.193 68.22C260.113 68.22 259.309 68.352 258.781 68.616C258.757 68.616 258.745 68.628 258.745 68.652V68.688ZM286.589 81.072L283.565 81.108C282.893 81.132 281.897 81.144 280.577 81.144L280.433 81.036C280.313 80.796 279.953 80.052 279.353 78.804C278.825 77.604 278.405 76.716 278.093 76.14C277.733 75.492 277.145 74.568 276.329 73.368C276.185 73.152 276.053 72.96 275.933 72.792C275.813 72.624 275.705 72.468 275.609 72.324C275.513 72.924 275.465 73.74 275.465 74.772C275.465 76.908 275.597 78.852 275.861 80.604C275.645 81.036 274.493 81.252 272.405 81.252L270.821 81.216C270.509 81.192 270.041 81.18 269.417 81.18L269.309 80.892L269.273 80.964C269.345 80.532 269.381 79.872 269.381 78.984C269.381 77.064 269.357 74.184 269.309 70.344C269.237 67.488 269.201 64.62 269.201 61.74V59.796C269.201 58.188 269.129 56.88 268.985 55.872L269.165 55.656C271.853 55.176 274.121 54.936 275.969 54.936C277.721 54.936 279.377 55.224 280.937 55.8C282.497 56.352 283.757 57.228 284.717 58.428C285.701 59.628 286.193 61.116 286.193 62.892C286.193 64.068 285.953 65.208 285.473 66.312C285.017 67.392 284.345 68.292 283.457 69.012C282.593 69.708 281.573 70.092 280.397 70.164C280.757 70.788 281.525 71.976 282.701 73.728C283.733 75.264 284.561 76.56 285.185 77.616C285.809 78.672 286.337 79.776 286.769 80.928L286.589 80.784V81.072ZM286.301 80.712C285.821 79.56 285.281 78.48 284.681 77.472C284.081 76.464 283.193 75.072 282.017 73.296L281.441 72.504C281.009 71.952 280.673 71.484 280.433 71.1C280.193 70.716 280.037 70.356 279.965 70.02L280.145 69.804C281.297 69.804 282.305 69.468 283.169 68.796C284.033 68.124 284.693 67.26 285.149 66.204C285.605 65.148 285.833 64.056 285.833 62.928C285.833 61.08 285.341 59.592 284.357 58.464C283.397 57.312 282.197 56.508 280.757 56.052C279.341 55.572 277.865 55.332 276.329 55.332C275.993 55.332 275.465 55.356 274.745 55.404L273.953 55.44H274.025C272.177 55.56 270.629 55.74 269.381 55.98C269.429 56.364 269.453 56.64 269.453 56.808C269.453 60.168 269.513 63.924 269.633 68.076C269.729 73.02 269.777 76.752 269.777 79.272C269.777 79.8 269.741 80.316 269.669 80.82C270.269 80.82 270.725 80.832 271.037 80.856L272.585 80.892C273.785 80.892 274.757 80.76 275.501 80.496C275.237 78.336 275.105 76.368 275.105 74.592C275.105 73.44 275.177 72.504 275.321 71.784L275.645 71.712C275.765 71.88 275.897 72.084 276.041 72.324C276.209 72.564 276.389 72.816 276.581 73.08C277.445 74.328 278.057 75.3 278.417 75.996L279.569 78.372C279.977 79.284 280.349 80.088 280.685 80.784L283.493 80.748C284.117 80.724 285.053 80.712 286.301 80.712ZM274.349 60.696C275.237 60.312 276.089 60.12 276.905 60.12C277.841 60.12 278.585 60.396 279.137 60.948C279.689 61.5 279.965 62.172 279.965 62.964C279.965 63.732 279.725 64.38 279.245 64.908C278.789 65.412 278.105 65.664 277.193 65.664C276.641 65.664 276.137 65.628 275.681 65.556C275.105 65.508 274.745 65.484 274.601 65.484C274.337 65.22 274.205 64.8 274.205 64.224C274.205 63.936 274.217 63.66 274.241 63.396C274.289 63.108 274.313 62.868 274.313 62.676C274.313 62.58 274.301 62.484 274.277 62.388C274.253 62.292 274.241 62.184 274.241 62.064L274.277 61.416L274.349 60.696ZM276.941 60.516C276.173 60.516 275.393 60.684 274.601 61.02V61.236C274.649 61.332 274.673 61.668 274.673 62.244L274.637 64.008C274.637 64.392 274.673 64.764 274.745 65.124C275.417 65.268 276.101 65.34 276.797 65.34C278.693 65.34 279.641 64.584 279.641 63.072C279.641 62.616 279.533 62.196 279.317 61.812C279.125 61.404 278.849 61.092 278.489 60.876C278.033 60.636 277.517 60.516 276.941 60.516ZM304.214 77.832C304.214 78.696 304.19 79.392 304.142 79.92C304.094 80.448 303.95 80.832 303.71 81.072C302.678 81.072 301.154 81.096 299.138 81.144C297.074 81.192 295.538 81.216 294.53 81.216C292.658 81.216 290.798 81.144 288.95 81L288.77 80.784C288.77 79.008 288.746 76.344 288.698 72.792C288.626 70.128 288.59 67.464 288.59 64.8C288.59 61.344 288.662 58.464 288.806 56.16L288.986 56.016C290.162 55.944 291.938 55.884 294.314 55.836C295.106 55.836 296.294 55.812 297.878 55.764C298.19 55.764 298.706 55.74 299.426 55.692C300.146 55.62 300.866 55.584 301.586 55.584C302.402 55.584 303.182 55.656 303.926 55.8C304.094 56.16 304.178 56.664 304.178 57.312C304.178 57.768 304.154 58.428 304.106 59.292L304.07 61.128C303.902 61.488 302.774 61.668 300.686 61.668L297.626 61.632C297.266 61.632 296.726 61.656 296.006 61.704L294.494 61.74C294.494 61.956 294.47 62.28 294.422 62.712C294.374 63.432 294.35 63.972 294.35 64.332C294.35 64.836 294.398 65.28 294.494 65.664C295.094 65.76 295.814 65.808 296.654 65.808L298.814 65.772C299.006 66.18 299.102 66.744 299.102 67.464C299.102 68.064 299.09 68.508 299.066 68.796L299.03 70.164C299.03 70.548 299.042 70.824 299.066 70.992C298.922 71.256 298.322 71.388 297.266 71.388L295.754 71.352C295.61 71.4 295.43 71.436 295.214 71.46C295.022 71.46 294.854 71.472 294.71 71.496C294.566 72.216 294.494 72.972 294.494 73.764C294.494 74.412 294.554 75.072 294.674 75.744C295.394 75.744 296.018 75.756 296.546 75.78C297.098 75.804 297.554 75.828 297.914 75.852C299.69 75.948 301.01 75.996 301.874 75.996C302.33 75.996 303.038 75.972 303.998 75.924C303.998 75.924 304.058 75.984 304.178 76.104V76.176C304.202 76.56 304.214 77.112 304.214 77.832ZM303.566 80.712C303.758 79.872 303.854 78.936 303.854 77.904C303.854 77.208 303.842 76.68 303.818 76.32C303.434 76.344 302.858 76.356 302.09 76.356C301.25 76.356 299.99 76.308 298.31 76.212C297.878 76.188 297.35 76.164 296.726 76.14C296.102 76.116 295.382 76.104 294.566 76.104C294.302 76.104 294.17 75.408 294.17 74.016C294.17 72.936 294.206 72.204 294.278 71.82C294.35 71.436 294.518 71.196 294.782 71.1C295.07 70.98 295.598 70.92 296.366 70.92C296.702 70.92 296.954 70.932 297.122 70.956L297.878 70.992C298.238 70.992 298.514 70.956 298.706 70.884L298.742 67.824C298.742 67.272 298.706 66.708 298.634 66.132L296.582 66.096C296.462 66.096 296.294 66.108 296.078 66.132C295.862 66.156 295.598 66.168 295.286 66.168C294.374 66.168 293.918 65.748 293.918 64.908C293.918 64.068 293.93 63.36 293.954 62.784C293.978 62.208 294.062 61.764 294.206 61.452L294.242 61.416C294.626 61.416 295.25 61.392 296.114 61.344C296.93 61.296 297.566 61.272 298.022 61.272L300.146 61.308C301.466 61.308 302.654 61.212 303.71 61.02L303.746 59.328C303.794 58.56 303.818 57.972 303.818 57.564C303.818 56.916 303.794 56.436 303.746 56.124C303.17 56.028 302.462 55.98 301.622 55.98C301.046 55.98 300.23 56.004 299.174 56.052C298.55 56.1 298.118 56.124 297.878 56.124C296.342 56.172 295.178 56.196 294.386 56.196C292.058 56.244 290.318 56.304 289.166 56.376C289.022 58.656 288.95 61.5 288.95 64.908C288.95 67.548 288.986 70.164 289.058 72.756C289.106 76.26 289.13 78.888 289.13 80.64C290.978 80.784 292.802 80.856 294.602 80.856C295.586 80.856 297.086 80.832 299.102 80.784C301.07 80.736 302.558 80.712 303.566 80.712ZM321.294 81C321.174 81.24 320.454 81.36 319.134 81.36C318.606 81.36 318.006 81.324 317.334 81.252C316.662 81.204 316.254 81.096 316.11 80.928C315.87 80.376 315.63 79.5 315.39 78.3C315.246 77.58 315.102 76.992 314.958 76.536C314.838 76.056 314.67 75.6 314.454 75.168C314.262 75.168 314.058 75.156 313.842 75.132C313.626 75.108 313.422 75.096 313.23 75.096C313.134 75.144 313.014 75.168 312.87 75.168L312.438 75.132C312.222 75.588 312.066 76.116 311.97 76.716C311.898 77.292 311.85 77.64 311.826 77.76C311.73 78.504 311.61 79.14 311.466 79.668C311.346 80.172 311.154 80.64 310.89 81.072L310.818 81.108L310.674 81.18H310.71L310.386 81.216L308.226 81.18C307.026 81.132 306.102 81.108 305.454 81.108L305.418 81.072L305.346 80.892C305.466 80.484 305.55 79.98 305.598 79.38C305.646 78.948 305.694 78.648 305.742 78.48C307.11 69.816 308.814 62.244 310.854 55.764L311.034 55.62H311.214C311.358 55.548 312.126 55.512 313.518 55.512C313.854 55.488 314.19 55.476 314.526 55.476C314.886 55.476 315.198 55.464 315.462 55.44C315.654 55.656 315.822 56.112 315.966 56.808C316.134 57.48 316.23 57.876 316.254 57.996C316.374 58.596 316.434 58.896 316.434 58.896C317.37 62.928 318.81 69.444 320.754 78.444L321.294 80.892V81ZM319.17 81C319.818 81 320.394 80.952 320.898 80.856L318.63 70.524C317.358 64.836 316.506 60.996 316.074 59.004C316.05 58.884 315.942 58.464 315.75 57.744C315.51 56.88 315.366 56.232 315.318 55.8C314.19 55.92 312.81 55.98 311.178 55.98C309.018 62.844 307.326 70.38 306.102 78.588C306.078 78.78 306.03 79.116 305.958 79.596C305.91 80.052 305.838 80.448 305.742 80.784C307.326 80.856 308.454 80.892 309.126 80.892C309.87 80.892 310.362 80.868 310.602 80.82C310.842 80.436 311.022 79.992 311.142 79.488C311.286 78.96 311.418 78.336 311.538 77.616C311.73 76.368 311.946 75.456 312.186 74.88L312.33 74.772H313.086C313.158 74.724 313.302 74.7 313.518 74.7C313.734 74.7 313.95 74.724 314.166 74.772C314.382 74.796 314.574 74.844 314.742 74.916C315.054 75.516 315.282 76.176 315.426 76.896C315.594 77.616 315.69 78.036 315.714 78.156C315.93 79.26 316.146 80.1 316.362 80.676C316.602 80.7 316.89 80.748 317.226 80.82C317.562 80.868 317.838 80.904 318.054 80.928C318.534 80.976 318.906 81 319.17 81ZM312.582 70.92C312.294 70.92 312.066 70.836 311.898 70.668C312.354 65.556 312.822 63 313.302 63H313.446C313.83 63.456 314.106 64.188 314.274 65.196C314.466 66.204 314.622 67.476 314.742 69.012C314.766 69.276 314.79 69.552 314.814 69.84C314.838 70.128 314.874 70.416 314.922 70.704L314.742 70.884L312.582 70.92ZM312.942 70.596C313.278 70.596 313.806 70.572 314.526 70.524C314.238 68.1 313.986 66.252 313.77 64.98C313.746 64.884 313.71 64.644 313.662 64.26C313.614 63.876 313.518 63.6 313.374 63.432C313.11 64.248 312.906 65.088 312.762 65.952C312.642 66.792 312.522 67.872 312.402 69.192L312.258 70.56C312.402 70.584 312.63 70.596 312.942 70.596ZM327.799 55.44C331.159 55.44 333.835 55.536 335.827 55.728V59.4C335.827 60.48 335.707 61.26 335.467 61.74C335.059 61.644 334.579 61.596 334.027 61.596C333.667 61.596 333.175 61.62 332.551 61.668C331.879 61.716 331.399 61.74 331.111 61.74L331.075 63.9C331.051 64.38 331.039 65.088 331.039 66.024C331.039 67.656 331.087 70.128 331.183 73.44C331.207 74.256 331.231 75.276 331.255 76.5C331.279 77.724 331.291 79.152 331.291 80.784C331.195 81.024 330.679 81.144 329.743 81.144L328.339 81.108C327.667 81.06 327.187 81.036 326.899 81.036C326.251 81.036 325.699 81.096 325.243 81.216C325.051 81.096 324.955 80.844 324.955 80.46C324.955 80.004 324.979 79.32 325.027 78.408L325.063 76.356V71.604C325.063 67.404 325.027 64.236 324.955 62.1C324.667 61.956 324.319 61.848 323.911 61.776C323.503 61.68 323.119 61.632 322.759 61.632L320.995 61.668C320.659 61.668 320.431 61.548 320.311 61.308C320.215 61.044 320.167 60.672 320.167 60.192L320.203 59.256V57.492C320.203 57.372 320.203 57.132 320.203 56.772C320.203 56.388 320.227 56.028 320.275 55.692H320.239L320.419 55.476L327.799 55.44ZM335.323 61.344C335.419 60.48 335.467 59.496 335.467 58.392C335.467 57.408 335.455 56.664 335.431 56.16C332.887 55.92 329.827 55.8 326.251 55.8L320.599 55.836C320.503 56.22 320.455 57.144 320.455 58.608C320.455 60.024 320.539 60.9 320.707 61.236C320.995 61.308 321.331 61.344 321.715 61.344L323.155 61.308C323.635 61.308 324.127 61.38 324.631 61.524C325.135 61.668 325.387 61.884 325.387 62.172C325.387 62.892 325.375 63.492 325.351 63.972L325.315 66.384C325.315 67.488 325.339 69.144 325.387 71.352L325.423 76.32C325.423 76.56 325.399 77.04 325.351 77.76C325.303 78.624 325.279 79.272 325.279 79.704C325.279 80.016 325.303 80.388 325.351 80.82C325.687 80.748 326.191 80.712 326.863 80.712C327.415 80.712 327.835 80.724 328.123 80.748L329.383 80.784C329.935 80.784 330.439 80.736 330.895 80.64C330.751 77.088 330.679 72.612 330.679 67.212V63.396V62.208C330.679 62.088 330.679 61.98 330.679 61.884C330.703 61.764 330.727 61.68 330.751 61.632V61.668C330.751 61.38 331.699 61.236 333.595 61.236C334.363 61.236 334.939 61.272 335.323 61.344ZM330.823 61.488L330.859 61.452L330.787 61.56L330.823 61.488ZM348.548 81.072L347.36 78.516C346.472 76.74 345.776 75.216 345.272 73.944C344.96 73.224 344.672 72.444 344.408 71.604L343.58 69.444C343.436 71.028 343.364 73.08 343.364 75.6V78.012C343.364 79.356 343.4 80.352 343.472 81C343.28 81.192 342.98 81.312 342.572 81.36C342.188 81.432 341.732 81.468 341.204 81.468C340.676 81.468 340.052 81.408 339.332 81.288C338.636 81.192 338.216 81.072 338.072 80.928C338.072 79.344 338.048 76.944 338 73.728C337.952 70.56 337.928 68.172 337.928 66.564C337.928 62.364 338.048 58.764 338.288 55.764C338.72 55.548 339.284 55.44 339.98 55.44C340.148 55.44 340.304 55.464 340.448 55.512C341.24 55.512 341.876 55.536 342.356 55.584C342.836 55.608 343.136 55.74 343.256 55.98C343.256 56.172 343.352 56.472 343.544 56.88C343.736 57.264 343.952 57.66 344.192 58.068C344.432 58.452 344.648 58.836 344.84 59.22C345.032 59.604 345.128 59.88 345.128 60.048C345.2 60.288 345.404 60.708 345.74 61.308L346.172 62.1C346.244 62.268 346.604 63 347.252 64.296L347.936 65.664C348.032 64.896 348.08 64.032 348.08 63.072C348.08 62.448 348.056 61.536 348.008 60.336C347.936 59.424 347.9 58.512 347.9 57.6C347.9 56.928 347.936 56.268 348.008 55.62C348.344 55.452 348.728 55.356 349.16 55.332C349.616 55.284 350.156 55.26 350.78 55.26C352.34 55.26 353.192 55.392 353.336 55.656L353.372 81C353.252 81.12 353.192 81.18 353.192 81.18H353.156C352.892 81.3 352.508 81.36 352.004 81.36C351.62 81.36 351.068 81.336 350.348 81.288C349.82 81.216 349.268 81.18 348.692 81.18L348.548 81.072ZM352.976 55.8C352.136 55.68 351.392 55.62 350.744 55.62C350.048 55.62 349.256 55.68 348.368 55.8C348.296 56.592 348.26 57.372 348.26 58.14C348.26 58.836 348.284 59.88 348.332 61.272C348.404 62.304 348.44 63.372 348.44 64.476C348.44 64.908 348.404 65.268 348.332 65.556C348.284 65.844 348.176 66.072 348.008 66.24H347.972C347.66 66.24 347.048 65.136 346.136 62.928L345.848 62.244C345.776 62.1 345.584 61.788 345.272 61.308C344.96 60.828 344.792 60.432 344.768 60.12L344.084 58.752C343.364 57.408 342.968 56.532 342.896 56.124C342.68 56.076 342.212 56.028 341.492 55.98C341.372 55.98 341.168 55.968 340.88 55.944C340.592 55.92 340.4 55.884 340.304 55.836H339.692C339.62 55.884 339.488 55.908 339.296 55.908H339.008C338.84 55.908 338.72 55.92 338.648 55.944C338.408 58.872 338.288 62.412 338.288 66.564C338.288 68.148 338.312 70.524 338.36 73.692C338.408 76.86 338.432 79.224 338.432 80.784C338.84 80.784 339.212 80.808 339.548 80.856C339.884 80.88 340.124 80.892 340.268 80.892C340.772 80.964 341.336 81 341.96 81C342.08 80.952 342.272 80.928 342.536 80.928C342.776 80.928 342.956 80.916 343.076 80.892C343.004 79.956 342.968 79.008 342.968 78.048C342.968 76.872 343.004 75.696 343.076 74.52C343.124 73.368 343.148 72.492 343.148 71.892L343.112 70.848C343.112 69.408 343.244 68.688 343.508 68.688H343.544L343.724 68.796C343.94 69.324 344.24 70.14 344.624 71.244C344.72 71.508 344.864 71.904 345.056 72.432C345.248 72.96 345.428 73.416 345.596 73.8C346.028 74.904 346.676 76.332 347.54 78.084L348.8 80.82C349.544 80.82 350.144 80.856 350.6 80.928C351.176 80.976 351.644 81 352.004 81C352.124 81 352.28 80.976 352.472 80.928C352.664 80.88 352.844 80.844 353.012 80.82L352.976 55.8ZM372.274 77.832C372.274 78.696 372.25 79.392 372.202 79.92C372.154 80.448 372.01 80.832 371.77 81.072C370.738 81.072 369.214 81.096 367.198 81.144C365.134 81.192 363.598 81.216 362.59 81.216C360.718 81.216 358.858 81.144 357.01 81L356.83 80.784C356.83 79.008 356.806 76.344 356.758 72.792C356.686 70.128 356.65 67.464 356.65 64.8C356.65 61.344 356.722 58.464 356.866 56.16L357.046 56.016C358.222 55.944 359.998 55.884 362.374 55.836C363.166 55.836 364.354 55.812 365.938 55.764C366.25 55.764 366.766 55.74 367.486 55.692C368.206 55.62 368.926 55.584 369.646 55.584C370.462 55.584 371.242 55.656 371.986 55.8C372.154 56.16 372.238 56.664 372.238 57.312C372.238 57.768 372.214 58.428 372.166 59.292L372.13 61.128C371.962 61.488 370.834 61.668 368.746 61.668L365.686 61.632C365.326 61.632 364.786 61.656 364.066 61.704L362.554 61.74C362.554 61.956 362.53 62.28 362.482 62.712C362.434 63.432 362.41 63.972 362.41 64.332C362.41 64.836 362.458 65.28 362.554 65.664C363.154 65.76 363.874 65.808 364.714 65.808L366.874 65.772C367.066 66.18 367.162 66.744 367.162 67.464C367.162 68.064 367.15 68.508 367.126 68.796L367.09 70.164C367.09 70.548 367.102 70.824 367.126 70.992C366.982 71.256 366.382 71.388 365.326 71.388L363.814 71.352C363.67 71.4 363.49 71.436 363.274 71.46C363.082 71.46 362.914 71.472 362.77 71.496C362.626 72.216 362.554 72.972 362.554 73.764C362.554 74.412 362.614 75.072 362.734 75.744C363.454 75.744 364.078 75.756 364.606 75.78C365.158 75.804 365.614 75.828 365.974 75.852C367.75 75.948 369.07 75.996 369.934 75.996C370.39 75.996 371.098 75.972 372.058 75.924C372.058 75.924 372.118 75.984 372.238 76.104V76.176C372.262 76.56 372.274 77.112 372.274 77.832ZM371.626 80.712C371.818 79.872 371.914 78.936 371.914 77.904C371.914 77.208 371.902 76.68 371.878 76.32C371.494 76.344 370.918 76.356 370.15 76.356C369.31 76.356 368.05 76.308 366.37 76.212C365.938 76.188 365.41 76.164 364.786 76.14C364.162 76.116 363.442 76.104 362.626 76.104C362.362 76.104 362.23 75.408 362.23 74.016C362.23 72.936 362.266 72.204 362.338 71.82C362.41 71.436 362.578 71.196 362.842 71.1C363.13 70.98 363.658 70.92 364.426 70.92C364.762 70.92 365.014 70.932 365.182 70.956L365.938 70.992C366.298 70.992 366.574 70.956 366.766 70.884L366.802 67.824C366.802 67.272 366.766 66.708 366.694 66.132L364.642 66.096C364.522 66.096 364.354 66.108 364.138 66.132C363.922 66.156 363.658 66.168 363.346 66.168C362.434 66.168 361.978 65.748 361.978 64.908C361.978 64.068 361.99 63.36 362.014 62.784C362.038 62.208 362.122 61.764 362.266 61.452L362.302 61.416C362.686 61.416 363.31 61.392 364.174 61.344C364.99 61.296 365.626 61.272 366.082 61.272L368.206 61.308C369.526 61.308 370.714 61.212 371.77 61.02L371.806 59.328C371.854 58.56 371.878 57.972 371.878 57.564C371.878 56.916 371.854 56.436 371.806 56.124C371.23 56.028 370.522 55.98 369.682 55.98C369.106 55.98 368.29 56.004 367.234 56.052C366.61 56.1 366.178 56.124 365.938 56.124C364.402 56.172 363.238 56.196 362.446 56.196C360.118 56.244 358.378 56.304 357.226 56.376C357.082 58.656 357.01 61.5 357.01 64.908C357.01 67.548 357.046 70.164 357.118 72.756C357.166 76.26 357.19 78.888 357.19 80.64C359.038 80.784 360.862 80.856 362.662 80.856C363.646 80.856 365.146 80.832 367.162 80.784C369.13 80.736 370.618 80.712 371.626 80.712ZM387.05 64.404C386.21 64.404 385.394 64.296 384.602 64.08L384.494 63.864C384.518 63.768 384.53 63.648 384.53 63.504C384.53 62.928 384.302 62.46 383.846 62.1C383.39 61.74 382.874 61.56 382.298 61.56C381.77 61.56 381.302 61.728 380.894 62.064C380.486 62.4 380.282 62.88 380.282 63.504C380.282 64.152 380.474 64.596 380.858 64.836C381.266 65.052 381.83 65.208 382.55 65.304C382.886 65.352 383.138 65.4 383.306 65.448C385.466 66.024 387.158 67.056 388.382 68.544C389.63 70.032 390.254 71.712 390.254 73.584C390.254 75.216 389.894 76.632 389.174 77.832C388.454 79.008 387.482 79.896 386.258 80.496C385.058 81.096 383.75 81.396 382.334 81.396C380.894 81.396 379.514 81.108 378.194 80.532C376.874 79.956 375.794 79.128 374.954 78.048C374.114 76.968 373.694 75.696 373.694 74.232C373.694 73.8 373.79 73.536 373.982 73.44C374.174 73.344 374.534 73.296 375.062 73.296H376.646C378.422 73.296 379.394 73.38 379.562 73.548C379.61 74.22 379.874 74.748 380.354 75.132C380.834 75.492 381.386 75.672 382.01 75.672C382.586 75.672 383.078 75.516 383.486 75.204C383.894 74.868 384.098 74.4 384.098 73.8C384.098 72.744 383.678 72 382.838 71.568C382.022 71.136 380.906 70.8 379.49 70.56C379.442 70.536 379.07 70.452 378.374 70.308C377.606 70.116 376.886 69.684 376.214 69.012C375.566 68.316 375.038 67.512 374.63 66.6C374.246 65.688 374.054 64.836 374.054 64.044C374.054 62.484 374.402 61.068 375.098 59.796C375.794 58.5 376.778 57.48 378.05 56.736C379.322 55.992 380.81 55.62 382.514 55.62C383.858 55.62 385.13 55.86 386.33 56.34C387.554 56.82 388.538 57.552 389.282 58.536C390.05 59.496 390.434 60.672 390.434 62.064C390.434 62.448 390.386 63.072 390.29 63.936C389.978 64.248 388.898 64.404 387.05 64.404ZM387.122 64.08C387.746 64.08 388.682 63.984 389.93 63.792C390.05 63.12 390.11 62.52 390.11 61.992C390.11 60.72 389.738 59.628 388.994 58.716C388.25 57.804 387.278 57.12 386.078 56.664C384.902 56.184 383.678 55.944 382.406 55.944C380.87 55.944 379.49 56.304 378.266 57.024C377.066 57.72 376.118 58.68 375.422 59.904C374.75 61.104 374.414 62.412 374.414 63.828C374.414 64.572 374.582 65.388 374.918 66.276C375.254 67.164 375.722 67.956 376.322 68.652C376.946 69.324 377.642 69.756 378.41 69.948C378.674 70.02 379.094 70.104 379.67 70.2C380.654 70.392 381.47 70.596 382.118 70.812C382.766 71.004 383.318 71.34 383.774 71.82C384.254 72.3 384.494 72.96 384.494 73.8C384.494 74.496 384.242 75.048 383.738 75.456C383.234 75.84 382.646 76.032 381.974 76.032C381.278 76.032 380.654 75.828 380.102 75.42C379.55 75.012 379.25 74.448 379.202 73.728C378.386 73.728 377.774 73.716 377.366 73.692L375.494 73.656C374.846 73.656 374.366 73.68 374.054 73.728C374.054 75.216 374.426 76.512 375.17 77.616C375.938 78.72 376.946 79.56 378.194 80.136C379.466 80.712 380.846 81 382.334 81C383.678 81 384.926 80.724 386.078 80.172C387.23 79.596 388.154 78.756 388.85 77.652C389.546 76.524 389.894 75.18 389.894 73.62C389.894 72.084 389.45 70.68 388.562 69.408C387.698 68.136 386.498 67.128 384.962 66.384C384.722 66.264 384.398 66.168 383.99 66.096C383.606 66 383.354 65.94 383.234 65.916C382.154 65.724 381.326 65.472 380.75 65.16C380.198 64.848 379.922 64.308 379.922 63.54C379.922 62.796 380.15 62.232 380.606 61.848C381.086 61.44 381.638 61.236 382.262 61.236C382.958 61.236 383.57 61.44 384.098 61.848C384.65 62.256 384.926 62.772 384.926 63.396L384.89 63.756C385.61 63.972 386.354 64.08 387.122 64.08ZM405.242 64.404C404.402 64.404 403.586 64.296 402.794 64.08L402.686 63.864C402.71 63.768 402.722 63.648 402.722 63.504C402.722 62.928 402.494 62.46 402.038 62.1C401.582 61.74 401.066 61.56 400.49 61.56C399.962 61.56 399.494 61.728 399.086 62.064C398.678 62.4 398.474 62.88 398.474 63.504C398.474 64.152 398.666 64.596 399.05 64.836C399.458 65.052 400.022 65.208 400.742 65.304C401.078 65.352 401.33 65.4 401.498 65.448C403.658 66.024 405.35 67.056 406.574 68.544C407.822 70.032 408.446 71.712 408.446 73.584C408.446 75.216 408.086 76.632 407.366 77.832C406.646 79.008 405.674 79.896 404.45 80.496C403.25 81.096 401.942 81.396 400.526 81.396C399.086 81.396 397.706 81.108 396.386 80.532C395.066 79.956 393.986 79.128 393.146 78.048C392.306 76.968 391.886 75.696 391.886 74.232C391.886 73.8 391.982 73.536 392.174 73.44C392.366 73.344 392.726 73.296 393.254 73.296H394.838C396.614 73.296 397.586 73.38 397.754 73.548C397.802 74.22 398.066 74.748 398.546 75.132C399.026 75.492 399.578 75.672 400.202 75.672C400.778 75.672 401.27 75.516 401.678 75.204C402.086 74.868 402.29 74.4 402.29 73.8C402.29 72.744 401.87 72 401.03 71.568C400.214 71.136 399.098 70.8 397.682 70.56C397.634 70.536 397.262 70.452 396.566 70.308C395.798 70.116 395.078 69.684 394.406 69.012C393.758 68.316 393.23 67.512 392.822 66.6C392.438 65.688 392.246 64.836 392.246 64.044C392.246 62.484 392.594 61.068 393.29 59.796C393.986 58.5 394.97 57.48 396.242 56.736C397.514 55.992 399.002 55.62 400.706 55.62C402.05 55.62 403.322 55.86 404.522 56.34C405.746 56.82 406.73 57.552 407.474 58.536C408.242 59.496 408.626 60.672 408.626 62.064C408.626 62.448 408.578 63.072 408.482 63.936C408.17 64.248 407.09 64.404 405.242 64.404ZM405.314 64.08C405.938 64.08 406.874 63.984 408.122 63.792C408.242 63.12 408.302 62.52 408.302 61.992C408.302 60.72 407.93 59.628 407.186 58.716C406.442 57.804 405.47 57.12 404.27 56.664C403.094 56.184 401.87 55.944 400.598 55.944C399.062 55.944 397.682 56.304 396.458 57.024C395.258 57.72 394.31 58.68 393.614 59.904C392.942 61.104 392.606 62.412 392.606 63.828C392.606 64.572 392.774 65.388 393.11 66.276C393.446 67.164 393.914 67.956 394.514 68.652C395.138 69.324 395.834 69.756 396.602 69.948C396.866 70.02 397.286 70.104 397.862 70.2C398.846 70.392 399.662 70.596 400.31 70.812C400.958 71.004 401.51 71.34 401.966 71.82C402.446 72.3 402.686 72.96 402.686 73.8C402.686 74.496 402.434 75.048 401.93 75.456C401.426 75.84 400.838 76.032 400.166 76.032C399.47 76.032 398.846 75.828 398.294 75.42C397.742 75.012 397.442 74.448 397.394 73.728C396.578 73.728 395.966 73.716 395.558 73.692L393.686 73.656C393.038 73.656 392.558 73.68 392.246 73.728C392.246 75.216 392.618 76.512 393.362 77.616C394.13 78.72 395.138 79.56 396.386 80.136C397.658 80.712 399.038 81 400.526 81C401.87 81 403.118 80.724 404.27 80.172C405.422 79.596 406.346 78.756 407.042 77.652C407.738 76.524 408.086 75.18 408.086 73.62C408.086 72.084 407.642 70.68 406.754 69.408C405.89 68.136 404.69 67.128 403.154 66.384C402.914 66.264 402.59 66.168 402.182 66.096C401.798 66 401.546 65.94 401.426 65.916C400.346 65.724 399.518 65.472 398.942 65.16C398.39 64.848 398.114 64.308 398.114 63.54C398.114 62.796 398.342 62.232 398.798 61.848C399.278 61.44 399.83 61.236 400.454 61.236C401.15 61.236 401.762 61.44 402.29 61.848C402.842 62.256 403.118 62.772 403.118 63.396L403.082 63.756C403.802 63.972 404.546 64.08 405.314 64.08Z" fill="#FB8B24"/>
<path d="M14.064 85.192C13.488 85.256 13.04 85.288 12.72 85.288C10.896 85.288 9.264 84.872 7.824 84.04C6.416 83.176 5.712 81.88 5.712 80.152C5.712 79.704 5.728 79.368 5.76 79.144L5.808 78.088C5.808 76.392 5.6 74.936 5.184 73.72C4.768 72.504 3.904 71.704 2.592 71.32C2.08 71.128 1.6 71.032 1.152 71.032C0.832 71 0.608 70.968 0.48 70.936C0.384 70.872 0.304 70.728 0.24 70.504C0.176 70.248 0.144 69.848 0.144 69.304C0.144 68.472 0.192 67.736 0.288 67.096C0.416 66.424 0.576 66.024 0.768 65.896C0.928 65.928 1.184 65.944 1.536 65.944C3.008 65.944 4.096 65.384 4.8 64.264C5.536 63.144 5.904 61.752 5.904 60.088C5.904 59.736 5.872 59.176 5.808 58.408C5.744 57.704 5.712 57.176 5.712 56.824C5.712 55.064 6.256 53.848 7.344 53.176C8.464 52.472 9.824 52.12 11.424 52.12C12.032 52.12 12.848 52.152 13.872 52.216C14.16 52.504 14.304 53.144 14.304 54.136C14.304 54.616 14.288 55.16 14.256 55.768C14.224 56.344 14.128 56.808 13.968 57.16C12.976 57.448 12.304 57.864 11.952 58.408C11.6 58.92 11.424 59.704 11.424 60.76L11.472 62.44C11.536 63.208 11.568 63.8 11.568 64.216C11.568 65.304 11.392 66.216 11.04 66.952C10.72 67.688 10.112 68.248 9.216 68.632C9.92 69.176 10.432 69.736 10.752 70.312C11.072 70.888 11.264 71.48 11.328 72.088C11.392 72.696 11.44 73.528 11.472 74.584L11.52 75.976C11.552 76.968 11.76 77.864 12.144 78.664C12.528 79.432 13.168 79.816 14.064 79.816C14.224 80.168 14.304 80.68 14.304 81.352C14.304 82.952 14.288 84.152 14.256 84.952L14.064 85.192ZM12.576 84.808C13.088 84.808 13.488 84.792 13.776 84.76C13.808 84.248 13.824 83.496 13.824 82.504V80.296C12.672 80.008 11.92 79.48 11.568 78.712C11.248 77.944 11.088 76.92 11.088 75.64C11.088 73.784 10.944 72.36 10.656 71.368C10.368 70.344 9.696 69.48 8.64 68.776L8.688 68.344L8.784 68.296V68.344C9.68 68.024 10.288 67.544 10.608 66.904C10.928 66.264 11.088 65.448 11.088 64.456C11.088 64.104 11.056 63.512 10.992 62.68C10.928 61.848 10.896 61.224 10.896 60.808C10.896 59.784 11.088 58.936 11.472 58.264C11.888 57.56 12.624 57.048 13.68 56.728C13.776 55.384 13.824 54.664 13.824 54.568C13.824 53.928 13.776 53.304 13.68 52.696C12.24 52.6 11.424 52.552 11.232 52.552C9.824 52.552 8.624 52.856 7.632 53.464C6.672 54.072 6.192 55.144 6.192 56.68C6.192 56.968 6.224 57.368 6.288 57.88C6.352 58.456 6.384 58.904 6.384 59.224C6.384 61.24 6.016 62.952 5.28 64.36C4.576 65.768 3.36 66.472 1.632 66.472C1.312 66.472 1.072 66.456 0.912 66.424C0.72 67.192 0.624 68.008 0.624 68.872C0.624 69.544 0.688 70.136 0.816 70.648C2.576 70.648 3.92 71.208 4.848 72.328C5.808 73.448 6.288 74.952 6.288 76.84L6.24 78.28C6.176 78.92 6.144 79.4 6.144 79.72C6.144 81.064 6.544 82.136 7.344 82.936C8.176 83.736 9.232 84.28 10.512 84.568C11.088 84.728 11.776 84.808 12.576 84.808Z" fill="#FB8B24"/>
<path d="M416.008 85C415.88 84.488 415.816 83.896 415.816 83.224C415.816 82.264 415.832 81.512 415.864 80.968C415.896 80.392 416.008 80.008 416.2 79.816C416.936 79.816 417.48 79.624 417.832 79.24C418.184 78.824 418.408 78.328 418.504 77.752C418.6 77.144 418.664 76.28 418.696 75.16C418.76 73.464 418.92 72.104 419.176 71.08C419.432 70.056 420.024 69.24 420.952 68.632C420.056 68.184 419.432 67.528 419.08 66.664C418.728 65.768 418.552 64.728 418.552 63.544C418.552 63.192 418.584 62.76 418.648 62.248C418.744 61.192 418.792 60.472 418.792 60.088C418.792 59.128 418.584 58.472 418.168 58.12C417.784 57.768 417.144 57.448 416.248 57.16C415.992 56.68 415.864 55.944 415.864 54.952C415.864 54.28 415.96 53.432 416.152 52.408C416.568 52.216 417.224 52.12 418.12 52.12C420.136 52.12 421.704 52.44 422.824 53.08C423.944 53.688 424.504 55.016 424.504 57.064C424.504 57.48 424.472 58.072 424.408 58.84L424.36 60.52C424.36 62.088 424.744 63.384 425.512 64.408C426.312 65.432 427.432 65.944 428.872 65.944C429.16 65.944 429.384 65.928 429.544 65.896C429.768 66.152 429.912 66.568 429.976 67.144C430.04 67.72 430.056 68.248 430.024 68.728C430.024 69.208 430.024 69.528 430.024 69.688C430.024 70.648 429.768 71.128 429.256 71.128C427.56 71.128 426.328 71.704 425.56 72.856C424.824 73.976 424.456 75.368 424.456 77.032L424.504 78.232C424.536 78.488 424.552 78.872 424.552 79.384C424.552 80.856 424.056 82.216 423.064 83.464C422.072 84.68 420.36 85.288 417.928 85.288C417.512 85.288 416.952 85.256 416.248 85.192L416.008 85ZM416.344 83.992C416.344 84.312 416.424 84.536 416.584 84.664C416.744 84.76 417.096 84.808 417.64 84.808C419.304 84.808 420.808 84.392 422.152 83.56C423.496 82.696 424.168 81.416 424.168 79.72C424.168 79.4 424.136 78.888 424.072 78.184C423.976 77.64 423.928 77.096 423.928 76.552C423.928 74.76 424.408 73.336 425.368 72.28C426.328 71.224 427.688 70.68 429.448 70.648C429.544 70.072 429.592 69.432 429.592 68.728C429.592 67.992 429.512 67.224 429.352 66.424C429.16 66.456 428.872 66.472 428.488 66.472C426.76 66.472 425.56 65.768 424.888 64.36C424.216 62.952 423.88 61.336 423.88 59.512C423.88 59.192 423.912 58.712 423.976 58.072L424.024 56.68C424.024 55.144 423.528 54.072 422.536 53.464C421.576 52.856 420.376 52.552 418.936 52.552C418.808 52.552 418.024 52.6 416.584 52.696C416.424 53.496 416.344 54.264 416.344 55C416.344 55.672 416.408 56.248 416.536 56.728C417.24 57.016 417.768 57.272 418.12 57.496C418.472 57.72 418.76 58.072 418.984 58.552C419.208 59 419.32 59.64 419.32 60.472C419.32 60.888 419.288 61.512 419.224 62.344C419.16 63.176 419.128 63.8 419.128 64.216C419.128 65.304 419.288 66.2 419.608 66.904C419.96 67.576 420.6 68.056 421.528 68.344L421.624 68.776C420.6 69.448 419.944 70.184 419.656 70.984C419.368 71.784 419.224 72.792 419.224 74.008L419.272 74.824C419.272 76.104 419.096 77.336 418.744 78.52C418.392 79.704 417.624 80.296 416.44 80.296C416.44 81.096 416.424 81.704 416.392 82.12L416.344 83.992Z" fill="#FB8B24"/>
<path d="M69.216 14.908V17.572H62.376V40H59.1V17.572H52.224V14.908H69.216ZM90.2406 20.272L78.3606 49.288H74.9766L78.8646 39.784L70.9086 20.272H74.5446L80.7366 36.256L86.8566 20.272H90.2406ZM96.8097 23.908C97.4577 22.78 98.4177 21.844 99.6897 21.1C100.986 20.332 102.486 19.948 104.19 19.948C105.942 19.948 107.526 20.368 108.942 21.208C110.382 22.048 111.51 23.236 112.326 24.772C113.142 26.284 113.55 28.048 113.55 30.064C113.55 32.056 113.142 33.832 112.326 35.392C111.51 36.952 110.382 38.164 108.942 39.028C107.526 39.892 105.942 40.324 104.19 40.324C102.51 40.324 101.022 39.952 99.7257 39.208C98.4537 38.44 97.4817 37.492 96.8097 36.364V49.36H93.5337V20.272H96.8097V23.908ZM110.202 30.064C110.202 28.576 109.902 27.28 109.302 26.176C108.702 25.072 107.886 24.232 106.854 23.656C105.846 23.08 104.73 22.792 103.506 22.792C102.306 22.792 101.19 23.092 100.158 23.692C99.1497 24.268 98.3337 25.12 97.7097 26.248C97.1097 27.352 96.8097 28.636 96.8097 30.1C96.8097 31.588 97.1097 32.896 97.7097 34.024C98.3337 35.128 99.1497 35.98 100.158 36.58C101.19 37.156 102.306 37.444 103.506 37.444C104.73 37.444 105.846 37.156 106.854 36.58C107.886 35.98 108.702 35.128 109.302 34.024C109.902 32.896 110.202 31.576 110.202 30.064ZM127.654 19.912C129.142 19.912 130.486 20.236 131.686 20.884C132.886 21.508 133.822 22.456 134.494 23.728C135.19 25 135.538 26.548 135.538 28.372V40H132.298V28.84C132.298 26.872 131.806 25.372 130.822 24.34C129.838 23.284 128.494 22.756 126.79 22.756C125.062 22.756 123.682 23.296 122.65 24.376C121.642 25.456 121.138 27.028 121.138 29.092V40H117.862V13.36H121.138V23.08C121.786 22.072 122.674 21.292 123.802 20.74C124.954 20.188 126.238 19.912 127.654 19.912ZM139.665 30.064C139.665 28.048 140.073 26.284 140.889 24.772C141.705 23.236 142.821 22.048 144.237 21.208C145.677 20.368 147.273 19.948 149.025 19.948C150.753 19.948 152.253 20.32 153.525 21.064C154.797 21.808 155.745 22.744 156.369 23.872V20.272H159.681V40H156.369V36.328C155.721 37.48 154.749 38.44 153.453 39.208C152.181 39.952 150.693 40.324 148.989 40.324C147.237 40.324 145.653 39.892 144.237 39.028C142.821 38.164 141.705 36.952 140.889 35.392C140.073 33.832 139.665 32.056 139.665 30.064ZM156.369 30.1C156.369 28.612 156.069 27.316 155.469 26.212C154.869 25.108 154.053 24.268 153.021 23.692C152.013 23.092 150.897 22.792 149.673 22.792C148.449 22.792 147.333 23.08 146.325 23.656C145.317 24.232 144.513 25.072 143.913 26.176C143.313 27.28 143.013 28.576 143.013 30.064C143.013 31.576 143.313 32.896 143.913 34.024C144.513 35.128 145.317 35.98 146.325 36.58C147.333 37.156 148.449 37.444 149.673 37.444C150.897 37.444 152.013 37.156 153.021 36.58C154.053 35.98 154.869 35.128 155.469 34.024C156.069 32.896 156.369 31.588 156.369 30.1ZM174.829 19.912C177.229 19.912 179.173 20.644 180.661 22.108C182.149 23.548 182.893 25.636 182.893 28.372V40H179.653V28.84C179.653 26.872 179.161 25.372 178.177 24.34C177.193 23.284 175.849 22.756 174.145 22.756C172.417 22.756 171.037 23.296 170.005 24.376C168.997 25.456 168.493 27.028 168.493 29.092V40H165.217V20.272H168.493V23.08C169.141 22.072 170.017 21.292 171.121 20.74C172.249 20.188 173.485 19.912 174.829 19.912ZM206.245 29.38C206.245 30.004 206.209 30.664 206.137 31.36H190.369C190.489 33.304 191.149 34.828 192.349 35.932C193.573 37.012 195.049 37.552 196.777 37.552C198.193 37.552 199.369 37.228 200.305 36.58C201.265 35.908 201.937 35.02 202.321 33.916H205.849C205.321 35.812 204.265 37.36 202.681 38.56C201.097 39.736 199.129 40.324 196.777 40.324C194.905 40.324 193.225 39.904 191.737 39.064C190.273 38.224 189.121 37.036 188.281 35.5C187.441 33.94 187.021 32.14 187.021 30.1C187.021 28.06 187.429 26.272 188.245 24.736C189.061 23.2 190.201 22.024 191.665 21.208C193.153 20.368 194.857 19.948 196.777 19.948C198.649 19.948 200.305 20.356 201.745 21.172C203.185 21.988 204.289 23.116 205.057 24.556C205.849 25.972 206.245 27.58 206.245 29.38ZM202.861 28.696C202.861 27.448 202.585 26.38 202.033 25.492C201.481 24.58 200.725 23.896 199.765 23.44C198.829 22.96 197.785 22.72 196.633 22.72C194.977 22.72 193.561 23.248 192.385 24.304C191.233 25.36 190.573 26.824 190.405 28.696H202.861ZM227.561 20.272L215.681 49.288H212.297L216.185 39.784L208.229 20.272H211.865L218.057 36.256L224.177 20.272H227.561ZM253.016 27.076C253.928 27.22 254.756 27.592 255.5 28.192C256.268 28.792 256.868 29.536 257.3 30.424C257.756 31.312 257.984 32.26 257.984 33.268C257.984 34.54 257.66 35.692 257.012 36.724C256.364 37.732 255.416 38.536 254.168 39.136C252.944 39.712 251.492 40 249.812 40H240.452V14.908H249.452C251.156 14.908 252.608 15.196 253.808 15.772C255.008 16.324 255.908 17.08 256.508 18.04C257.108 19 257.408 20.08 257.408 21.28C257.408 22.768 257 24.004 256.184 24.988C255.392 25.948 254.336 26.644 253.016 27.076ZM243.728 25.744H249.236C250.772 25.744 251.96 25.384 252.8 24.664C253.64 23.944 254.06 22.948 254.06 21.676C254.06 20.404 253.64 19.408 252.8 18.688C251.96 17.968 250.748 17.608 249.164 17.608H243.728V25.744ZM249.524 37.3C251.156 37.3 252.428 36.916 253.34 36.148C254.252 35.38 254.708 34.312 254.708 32.944C254.708 31.552 254.228 30.46 253.268 29.668C252.308 28.852 251.024 28.444 249.416 28.444H243.728V37.3H249.524ZM280.53 29.38C280.53 30.004 280.494 30.664 280.422 31.36H264.654C264.774 33.304 265.434 34.828 266.634 35.932C267.858 37.012 269.334 37.552 271.062 37.552C272.478 37.552 273.654 37.228 274.59 36.58C275.55 35.908 276.222 35.02 276.606 33.916H280.134C279.606 35.812 278.55 37.36 276.966 38.56C275.382 39.736 273.414 40.324 271.062 40.324C269.19 40.324 267.51 39.904 266.022 39.064C264.558 38.224 263.406 37.036 262.566 35.5C261.726 33.94 261.306 32.14 261.306 30.1C261.306 28.06 261.714 26.272 262.53 24.736C263.346 23.2 264.486 22.024 265.95 21.208C267.438 20.368 269.142 19.948 271.062 19.948C272.934 19.948 274.59 20.356 276.03 21.172C277.47 21.988 278.574 23.116 279.342 24.556C280.134 25.972 280.53 27.58 280.53 29.38ZM277.146 28.696C277.146 27.448 276.87 26.38 276.318 25.492C275.766 24.58 275.01 23.896 274.05 23.44C273.114 22.96 272.07 22.72 270.918 22.72C269.262 22.72 267.846 23.248 266.67 24.304C265.518 25.36 264.858 26.824 264.69 28.696H277.146ZM294.466 19.912C296.866 19.912 298.81 20.644 300.298 22.108C301.786 23.548 302.53 25.636 302.53 28.372V40H299.29V28.84C299.29 26.872 298.798 25.372 297.814 24.34C296.83 23.284 295.486 22.756 293.782 22.756C292.054 22.756 290.674 23.296 289.642 24.376C288.634 25.456 288.13 27.028 288.13 29.092V40H284.854V20.272H288.13V23.08C288.778 22.072 289.654 21.292 290.758 20.74C291.886 20.188 293.122 19.912 294.466 19.912ZM317.493 19.912C319.893 19.912 321.837 20.644 323.325 22.108C324.813 23.548 325.557 25.636 325.557 28.372V40H322.317V28.84C322.317 26.872 321.825 25.372 320.841 24.34C319.857 23.284 318.513 22.756 316.809 22.756C315.081 22.756 313.701 23.296 312.669 24.376C311.661 25.456 311.157 27.028 311.157 29.092V40H307.881V20.272H311.157V23.08C311.805 22.072 312.681 21.292 313.785 20.74C314.913 20.188 316.149 19.912 317.493 19.912ZM348.909 29.38C348.909 30.004 348.873 30.664 348.801 31.36H333.033C333.153 33.304 333.813 34.828 335.013 35.932C336.237 37.012 337.713 37.552 339.441 37.552C340.857 37.552 342.033 37.228 342.969 36.58C343.929 35.908 344.601 35.02 344.985 33.916H348.513C347.985 35.812 346.929 37.36 345.345 38.56C343.761 39.736 341.793 40.324 339.441 40.324C337.569 40.324 335.889 39.904 334.401 39.064C332.937 38.224 331.785 37.036 330.945 35.5C330.105 33.94 329.685 32.14 329.685 30.1C329.685 28.06 330.093 26.272 330.909 24.736C331.725 23.2 332.865 22.024 334.329 21.208C335.817 20.368 337.521 19.948 339.441 19.948C341.313 19.948 342.969 20.356 344.409 21.172C345.849 21.988 346.953 23.116 347.721 24.556C348.513 25.972 348.909 27.58 348.909 29.38ZM345.525 28.696C345.525 27.448 345.249 26.38 344.697 25.492C344.145 24.58 343.389 23.896 342.429 23.44C341.493 22.96 340.449 22.72 339.297 22.72C337.641 22.72 336.225 23.248 335.049 24.304C333.897 25.36 333.237 26.824 333.069 28.696H345.525ZM357.229 22.972V34.6C357.229 35.56 357.433 36.244 357.841 36.652C358.249 37.036 358.957 37.228 359.965 37.228H362.377V40H359.425C357.601 40 356.233 39.58 355.321 38.74C354.409 37.9 353.953 36.52 353.953 34.6V22.972H351.397V20.272H353.953V15.304H357.229V20.272H362.377V22.972H357.229ZM370.342 22.972V34.6C370.342 35.56 370.546 36.244 370.954 36.652C371.362 37.036 372.07 37.228 373.078 37.228H375.49V40H372.538C370.714 40 369.346 39.58 368.434 38.74C367.522 37.9 367.066 36.52 367.066 34.6V22.972H364.51V20.272H367.066V15.304H370.342V20.272H375.49V22.972H370.342Z" fill="#FB8B24"/>
</svg>
